%TF.GenerationSoftware,KiCad,Pcbnew,8.0.5*%
%TF.CreationDate,2025-04-17T16:29:18+02:00*%
%TF.ProjectId,ZED_F9P_minimal,5a45445f-4639-4505-9f6d-696e696d616c,rev?*%
%TF.SameCoordinates,Original*%
%TF.FileFunction,Paste,Top*%
%TF.FilePolarity,Positive*%
%FSLAX46Y46*%
G04 Gerber Fmt 4.6, Leading zero omitted, Abs format (unit mm)*
G04 Created by KiCad (PCBNEW 8.0.5) date 2025-04-17 16:29:18*
%MOMM*%
%LPD*%
G01*
G04 APERTURE LIST*
G04 Aperture macros list*
%AMRoundRect*
0 Rectangle with rounded corners*
0 $1 Rounding radius*
0 $2 $3 $4 $5 $6 $7 $8 $9 X,Y pos of 4 corners*
0 Add a 4 corners polygon primitive as box body*
4,1,4,$2,$3,$4,$5,$6,$7,$8,$9,$2,$3,0*
0 Add four circle primitives for the rounded corners*
1,1,$1+$1,$2,$3*
1,1,$1+$1,$4,$5*
1,1,$1+$1,$6,$7*
1,1,$1+$1,$8,$9*
0 Add four rect primitives between the rounded corners*
20,1,$1+$1,$2,$3,$4,$5,0*
20,1,$1+$1,$4,$5,$6,$7,0*
20,1,$1+$1,$6,$7,$8,$9,0*
20,1,$1+$1,$8,$9,$2,$3,0*%
G04 Aperture macros list end*
%ADD10RoundRect,0.218750X-0.381250X0.218750X-0.381250X-0.218750X0.381250X-0.218750X0.381250X0.218750X0*%
%ADD11RoundRect,0.250000X0.475000X-0.250000X0.475000X0.250000X-0.475000X0.250000X-0.475000X-0.250000X0*%
%ADD12R,1.193800X2.108200*%
%ADD13R,2.108200X2.895600*%
%ADD14RoundRect,0.243750X0.456250X-0.243750X0.456250X0.243750X-0.456250X0.243750X-0.456250X-0.243750X0*%
%ADD15R,0.558800X1.981200*%
%ADD16RoundRect,0.250000X-0.475000X0.250000X-0.475000X-0.250000X0.475000X-0.250000X0.475000X0.250000X0*%
%ADD17R,4.560000X0.850000*%
%ADD18R,4.560000X1.000000*%
%ADD19R,1.346200X0.758800*%
%ADD20RoundRect,0.112500X-0.112500X0.187500X-0.112500X-0.187500X0.112500X-0.187500X0.112500X0.187500X0*%
%ADD21R,1.193800X1.010400*%
%ADD22R,1.010400X1.193800*%
%ADD23RoundRect,0.250000X-0.250000X-0.475000X0.250000X-0.475000X0.250000X0.475000X-0.250000X0.475000X0*%
%ADD24RoundRect,0.243750X0.243750X0.456250X-0.243750X0.456250X-0.243750X-0.456250X0.243750X-0.456250X0*%
%ADD25R,0.800000X1.500000*%
%ADD26R,1.500000X0.800000*%
%ADD27R,1.100000X1.100000*%
G04 APERTURE END LIST*
D10*
%TO.C,L1*%
X59191350Y-27491500D03*
X59191350Y-29616500D03*
%TD*%
D11*
%TO.C,C2*%
X56759250Y-29643599D03*
X56759250Y-27743599D03*
%TD*%
D12*
%TO.C,INPUT*%
X42750000Y-47300000D03*
X42750000Y-54400001D03*
X40750002Y-47300000D03*
X40750002Y-54400001D03*
X38750001Y-47300000D03*
X38750001Y-54400001D03*
X36750002Y-47300000D03*
X36750002Y-54400001D03*
X34750001Y-47300000D03*
X34750001Y-54400001D03*
X32750000Y-47300000D03*
X32750000Y-54400001D03*
X30750001Y-47300000D03*
X30750001Y-54400001D03*
X28750000Y-47300000D03*
X28750000Y-54400001D03*
X26750002Y-47300000D03*
X26750002Y-54400001D03*
D13*
X47094401Y-50850000D03*
X22405601Y-50850000D03*
%TD*%
D14*
%TO.C,D3*%
X63788850Y-29366500D03*
X63788850Y-27491500D03*
%TD*%
D15*
%TO.C,OPA2365AID*%
X66530000Y-44804500D03*
X67800000Y-44804500D03*
X69070000Y-44804500D03*
X70340000Y-44804500D03*
X70340000Y-39876900D03*
X69070000Y-39876900D03*
X67800000Y-39876900D03*
X66530000Y-39876900D03*
%TD*%
D16*
%TO.C,C6*%
X56300000Y-39275000D03*
X56300000Y-41175000D03*
%TD*%
D17*
%TO.C,SMA*%
X77450000Y-27455000D03*
D18*
X77450000Y-24685000D03*
X77450000Y-30225000D03*
%TD*%
D19*
%TO.C,R6*%
X59300000Y-41224999D03*
X59300000Y-39464999D03*
%TD*%
D20*
%TO.C,D2*%
X61488850Y-27566500D03*
X61488850Y-29666500D03*
%TD*%
D21*
%TO.C,R7*%
X62150000Y-39575000D03*
X62150000Y-41271200D03*
%TD*%
D22*
%TO.C,R5*%
X23448100Y-30400000D03*
X21751900Y-30400000D03*
%TD*%
D11*
%TO.C,C5*%
X56300000Y-45850000D03*
X56300000Y-43950000D03*
%TD*%
D23*
%TO.C,C4*%
X37400000Y-41300000D03*
X39300000Y-41300000D03*
%TD*%
D21*
%TO.C,R3*%
X62150000Y-45071200D03*
X62150000Y-43375000D03*
%TD*%
D22*
%TO.C,R1*%
X56745150Y-31804000D03*
X58441350Y-31804000D03*
%TD*%
D24*
%TO.C,D1*%
X23626900Y-27400000D03*
X21751900Y-27400000D03*
%TD*%
D25*
%TO.C,ZED-F9P*%
X43100000Y-23400000D03*
X42000000Y-23400000D03*
X40900000Y-23400000D03*
X39800000Y-23400000D03*
X38700000Y-23400000D03*
X37600000Y-23400000D03*
X36500000Y-23400000D03*
X35400000Y-23400000D03*
X34300000Y-23400000D03*
X33200000Y-23400000D03*
X32100000Y-23400000D03*
X31000000Y-23400000D03*
X29900000Y-23400000D03*
X28800000Y-23400000D03*
D26*
X26000000Y-24300000D03*
X26000000Y-25400000D03*
X26000000Y-26500000D03*
X26000000Y-27600000D03*
X26000000Y-28700000D03*
X26000000Y-29800000D03*
X26000000Y-30900000D03*
X26000000Y-32000000D03*
X26000000Y-33100000D03*
X26000000Y-34200000D03*
X26000000Y-35300000D03*
X26000000Y-36400000D03*
X26000000Y-37500000D03*
D25*
X28800000Y-38400000D03*
X29900000Y-38400000D03*
X31000000Y-38400000D03*
X32100000Y-38400000D03*
X33200000Y-38400000D03*
X34300000Y-38400000D03*
X35400000Y-38400000D03*
X36500000Y-38400000D03*
X37600000Y-38400000D03*
X38700000Y-38400000D03*
X39800000Y-38400000D03*
X40900000Y-38400000D03*
X42000000Y-38400000D03*
X43100000Y-38400000D03*
D26*
X45900000Y-37500000D03*
X45900000Y-36400000D03*
X45900000Y-35300000D03*
X45900000Y-34200000D03*
X45900000Y-33100000D03*
X45900000Y-32000000D03*
X45900000Y-30900000D03*
X45900000Y-29800000D03*
X45900000Y-28700000D03*
X45900000Y-27600000D03*
X45900000Y-26500000D03*
X45900000Y-25400000D03*
X45900000Y-24300000D03*
D27*
X43300000Y-25650000D03*
X41200000Y-25650000D03*
X39100000Y-25650000D03*
X37000000Y-25650000D03*
X34900000Y-25650000D03*
X32800000Y-25650000D03*
X30700000Y-25650000D03*
X28600000Y-25650000D03*
X43300000Y-27750000D03*
X41200000Y-27750000D03*
X39100000Y-27750000D03*
X37000000Y-27750000D03*
X34900000Y-27750000D03*
X32800000Y-27750000D03*
X30700000Y-27750000D03*
X28600000Y-27750000D03*
X43300000Y-29850000D03*
X41200000Y-29850000D03*
X39100000Y-29850000D03*
X37000000Y-29850000D03*
X34900000Y-29850000D03*
X32800000Y-29850000D03*
X30700000Y-29850000D03*
X28600000Y-29850000D03*
X43300000Y-31950000D03*
X41200000Y-31950000D03*
X39100000Y-31950000D03*
X37000000Y-31950000D03*
X34900000Y-31950000D03*
X32800000Y-31950000D03*
X30700000Y-31950000D03*
X28600000Y-31950000D03*
X43300000Y-34050000D03*
X41200000Y-34050000D03*
X39100000Y-34050000D03*
X37000000Y-34050000D03*
X34900000Y-34050000D03*
X32800000Y-34050000D03*
X30700000Y-34050000D03*
X28600000Y-34050000D03*
X43300000Y-36150000D03*
X41200000Y-36150000D03*
X39100000Y-36150000D03*
X37000000Y-36150000D03*
X34900000Y-36150000D03*
X32800000Y-36150000D03*
X30700000Y-36150000D03*
X28600000Y-36150000D03*
%TD*%
D19*
%TO.C,R2*%
X59300000Y-43350300D03*
X59300000Y-45099700D03*
%TD*%
M02*
