%TF.GenerationSoftware,KiCad,Pcbnew,8.0.5*%
%TF.CreationDate,2025-04-17T16:29:18+02:00*%
%TF.ProjectId,ZED_F9P_minimal,5a45445f-4639-4505-9f6d-696e696d616c,rev?*%
%TF.SameCoordinates,Original*%
%TF.FileFunction,Legend,Top*%
%TF.FilePolarity,Positive*%
%FSLAX46Y46*%
G04 Gerber Fmt 4.6, Leading zero omitted, Abs format (unit mm)*
G04 Created by KiCad (PCBNEW 8.0.5) date 2025-04-17 16:29:18*
%MOMM*%
%LPD*%
G01*
G04 APERTURE LIST*
%ADD10C,0.100000*%
%ADD11C,0.150000*%
%ADD12C,0.152400*%
%ADD13C,0.508000*%
%ADD14C,0.120000*%
%ADD15C,0.200000*%
G04 APERTURE END LIST*
D10*
X56950000Y-22100000D02*
X56750000Y-22750000D01*
X56750000Y-22750000D02*
X56550000Y-22100000D01*
X53600000Y-46875000D02*
X53950000Y-46525000D01*
X53950000Y-46525000D02*
X53950000Y-46975000D01*
D11*
X38392856Y-44519771D02*
X38735714Y-44519771D01*
X38564285Y-45119771D02*
X38564285Y-44519771D01*
X38935714Y-45119771D02*
X38935714Y-44519771D01*
X38935714Y-44519771D02*
X39164285Y-44519771D01*
X39164285Y-44519771D02*
X39221428Y-44548342D01*
X39221428Y-44548342D02*
X39249999Y-44576914D01*
X39249999Y-44576914D02*
X39278571Y-44634057D01*
X39278571Y-44634057D02*
X39278571Y-44719771D01*
X39278571Y-44719771D02*
X39249999Y-44776914D01*
X39249999Y-44776914D02*
X39221428Y-44805485D01*
X39221428Y-44805485D02*
X39164285Y-44834057D01*
X39164285Y-44834057D02*
X38935714Y-44834057D01*
X39792857Y-44719771D02*
X39792857Y-45119771D01*
X39649999Y-44491200D02*
X39507142Y-44919771D01*
X39507142Y-44919771D02*
X39878571Y-44919771D01*
X76669771Y-50975000D02*
X77098342Y-50975000D01*
X77098342Y-50975000D02*
X77184057Y-51003571D01*
X77184057Y-51003571D02*
X77241200Y-51060714D01*
X77241200Y-51060714D02*
X77269771Y-51146428D01*
X77269771Y-51146428D02*
X77269771Y-51203571D01*
X77269771Y-50689285D02*
X76669771Y-50689285D01*
X76669771Y-50689285D02*
X76669771Y-50460714D01*
X76669771Y-50460714D02*
X76698342Y-50403571D01*
X76698342Y-50403571D02*
X76726914Y-50375000D01*
X76726914Y-50375000D02*
X76784057Y-50346428D01*
X76784057Y-50346428D02*
X76869771Y-50346428D01*
X76869771Y-50346428D02*
X76926914Y-50375000D01*
X76926914Y-50375000D02*
X76955485Y-50403571D01*
X76955485Y-50403571D02*
X76984057Y-50460714D01*
X76984057Y-50460714D02*
X76984057Y-50689285D01*
X77269771Y-49775000D02*
X77269771Y-50117857D01*
X77269771Y-49946428D02*
X76669771Y-49946428D01*
X76669771Y-49946428D02*
X76755485Y-50003571D01*
X76755485Y-50003571D02*
X76812628Y-50060714D01*
X76812628Y-50060714D02*
X76841200Y-50117857D01*
X55230921Y-21078999D02*
X55230921Y-21364713D01*
X55230921Y-21364713D02*
X54630921Y-21364713D01*
X55230921Y-20564714D02*
X55230921Y-20907571D01*
X55230921Y-20736142D02*
X54630921Y-20736142D01*
X54630921Y-20736142D02*
X54716635Y-20793285D01*
X54716635Y-20793285D02*
X54773778Y-20850428D01*
X54773778Y-20850428D02*
X54802350Y-20907571D01*
X54173778Y-21099999D02*
X54202350Y-21128571D01*
X54202350Y-21128571D02*
X54230921Y-21214285D01*
X54230921Y-21214285D02*
X54230921Y-21271428D01*
X54230921Y-21271428D02*
X54202350Y-21357142D01*
X54202350Y-21357142D02*
X54145207Y-21414285D01*
X54145207Y-21414285D02*
X54088064Y-21442856D01*
X54088064Y-21442856D02*
X53973778Y-21471428D01*
X53973778Y-21471428D02*
X53888064Y-21471428D01*
X53888064Y-21471428D02*
X53773778Y-21442856D01*
X53773778Y-21442856D02*
X53716635Y-21414285D01*
X53716635Y-21414285D02*
X53659492Y-21357142D01*
X53659492Y-21357142D02*
X53630921Y-21271428D01*
X53630921Y-21271428D02*
X53630921Y-21214285D01*
X53630921Y-21214285D02*
X53659492Y-21128571D01*
X53659492Y-21128571D02*
X53688064Y-21099999D01*
X53688064Y-20871428D02*
X53659492Y-20842856D01*
X53659492Y-20842856D02*
X53630921Y-20785714D01*
X53630921Y-20785714D02*
X53630921Y-20642856D01*
X53630921Y-20642856D02*
X53659492Y-20585714D01*
X53659492Y-20585714D02*
X53688064Y-20557142D01*
X53688064Y-20557142D02*
X53745207Y-20528571D01*
X53745207Y-20528571D02*
X53802350Y-20528571D01*
X53802350Y-20528571D02*
X53888064Y-20557142D01*
X53888064Y-20557142D02*
X54230921Y-20899999D01*
X54230921Y-20899999D02*
X54230921Y-20528571D01*
X31071429Y-45454819D02*
X31071429Y-44454819D01*
X31547619Y-45454819D02*
X31547619Y-44454819D01*
X31547619Y-44454819D02*
X32119047Y-45454819D01*
X32119047Y-45454819D02*
X32119047Y-44454819D01*
X32595238Y-45454819D02*
X32595238Y-44454819D01*
X32595238Y-44454819D02*
X32976190Y-44454819D01*
X32976190Y-44454819D02*
X33071428Y-44502438D01*
X33071428Y-44502438D02*
X33119047Y-44550057D01*
X33119047Y-44550057D02*
X33166666Y-44645295D01*
X33166666Y-44645295D02*
X33166666Y-44788152D01*
X33166666Y-44788152D02*
X33119047Y-44883390D01*
X33119047Y-44883390D02*
X33071428Y-44931009D01*
X33071428Y-44931009D02*
X32976190Y-44978628D01*
X32976190Y-44978628D02*
X32595238Y-44978628D01*
X33595238Y-44454819D02*
X33595238Y-45264342D01*
X33595238Y-45264342D02*
X33642857Y-45359580D01*
X33642857Y-45359580D02*
X33690476Y-45407200D01*
X33690476Y-45407200D02*
X33785714Y-45454819D01*
X33785714Y-45454819D02*
X33976190Y-45454819D01*
X33976190Y-45454819D02*
X34071428Y-45407200D01*
X34071428Y-45407200D02*
X34119047Y-45359580D01*
X34119047Y-45359580D02*
X34166666Y-45264342D01*
X34166666Y-45264342D02*
X34166666Y-44454819D01*
X34500000Y-44454819D02*
X35071428Y-44454819D01*
X34785714Y-45454819D02*
X34785714Y-44454819D01*
X65169771Y-24957143D02*
X65169771Y-24614286D01*
X65769771Y-24785714D02*
X65169771Y-24785714D01*
X65769771Y-24414285D02*
X65169771Y-24414285D01*
X65169771Y-24414285D02*
X65169771Y-24185714D01*
X65169771Y-24185714D02*
X65198342Y-24128571D01*
X65198342Y-24128571D02*
X65226914Y-24100000D01*
X65226914Y-24100000D02*
X65284057Y-24071428D01*
X65284057Y-24071428D02*
X65369771Y-24071428D01*
X65369771Y-24071428D02*
X65426914Y-24100000D01*
X65426914Y-24100000D02*
X65455485Y-24128571D01*
X65455485Y-24128571D02*
X65484057Y-24185714D01*
X65484057Y-24185714D02*
X65484057Y-24414285D01*
X65769771Y-23500000D02*
X65769771Y-23842857D01*
X65769771Y-23671428D02*
X65169771Y-23671428D01*
X65169771Y-23671428D02*
X65255485Y-23728571D01*
X65255485Y-23728571D02*
X65312628Y-23785714D01*
X65312628Y-23785714D02*
X65341200Y-23842857D01*
X56269771Y-21442856D02*
X55669771Y-21442856D01*
X55669771Y-21442856D02*
X55669771Y-21299999D01*
X55669771Y-21299999D02*
X55698342Y-21214285D01*
X55698342Y-21214285D02*
X55755485Y-21157142D01*
X55755485Y-21157142D02*
X55812628Y-21128571D01*
X55812628Y-21128571D02*
X55926914Y-21099999D01*
X55926914Y-21099999D02*
X56012628Y-21099999D01*
X56012628Y-21099999D02*
X56126914Y-21128571D01*
X56126914Y-21128571D02*
X56184057Y-21157142D01*
X56184057Y-21157142D02*
X56241200Y-21214285D01*
X56241200Y-21214285D02*
X56269771Y-21299999D01*
X56269771Y-21299999D02*
X56269771Y-21442856D01*
X55669771Y-20899999D02*
X55669771Y-20528571D01*
X55669771Y-20528571D02*
X55898342Y-20728571D01*
X55898342Y-20728571D02*
X55898342Y-20642856D01*
X55898342Y-20642856D02*
X55926914Y-20585714D01*
X55926914Y-20585714D02*
X55955485Y-20557142D01*
X55955485Y-20557142D02*
X56012628Y-20528571D01*
X56012628Y-20528571D02*
X56155485Y-20528571D01*
X56155485Y-20528571D02*
X56212628Y-20557142D01*
X56212628Y-20557142D02*
X56241200Y-20585714D01*
X56241200Y-20585714D02*
X56269771Y-20642856D01*
X56269771Y-20642856D02*
X56269771Y-20814285D01*
X56269771Y-20814285D02*
X56241200Y-20871428D01*
X56241200Y-20871428D02*
X56212628Y-20899999D01*
X71519771Y-44782143D02*
X71519771Y-44667857D01*
X71519771Y-44667857D02*
X71548342Y-44610714D01*
X71548342Y-44610714D02*
X71605485Y-44553571D01*
X71605485Y-44553571D02*
X71719771Y-44525000D01*
X71719771Y-44525000D02*
X71919771Y-44525000D01*
X71919771Y-44525000D02*
X72034057Y-44553571D01*
X72034057Y-44553571D02*
X72091200Y-44610714D01*
X72091200Y-44610714D02*
X72119771Y-44667857D01*
X72119771Y-44667857D02*
X72119771Y-44782143D01*
X72119771Y-44782143D02*
X72091200Y-44839286D01*
X72091200Y-44839286D02*
X72034057Y-44896428D01*
X72034057Y-44896428D02*
X71919771Y-44925000D01*
X71919771Y-44925000D02*
X71719771Y-44925000D01*
X71719771Y-44925000D02*
X71605485Y-44896428D01*
X71605485Y-44896428D02*
X71548342Y-44839286D01*
X71548342Y-44839286D02*
X71519771Y-44782143D01*
X72119771Y-44267857D02*
X71519771Y-44267857D01*
X71519771Y-44267857D02*
X71519771Y-44039286D01*
X71519771Y-44039286D02*
X71548342Y-43982143D01*
X71548342Y-43982143D02*
X71576914Y-43953572D01*
X71576914Y-43953572D02*
X71634057Y-43925000D01*
X71634057Y-43925000D02*
X71719771Y-43925000D01*
X71719771Y-43925000D02*
X71776914Y-43953572D01*
X71776914Y-43953572D02*
X71805485Y-43982143D01*
X71805485Y-43982143D02*
X71834057Y-44039286D01*
X71834057Y-44039286D02*
X71834057Y-44267857D01*
X71948342Y-43696429D02*
X71948342Y-43410715D01*
X72119771Y-43753572D02*
X71519771Y-43553572D01*
X71519771Y-43553572D02*
X72119771Y-43353572D01*
X71576914Y-43182143D02*
X71548342Y-43153571D01*
X71548342Y-43153571D02*
X71519771Y-43096429D01*
X71519771Y-43096429D02*
X71519771Y-42953571D01*
X71519771Y-42953571D02*
X71548342Y-42896429D01*
X71548342Y-42896429D02*
X71576914Y-42867857D01*
X71576914Y-42867857D02*
X71634057Y-42839286D01*
X71634057Y-42839286D02*
X71691200Y-42839286D01*
X71691200Y-42839286D02*
X71776914Y-42867857D01*
X71776914Y-42867857D02*
X72119771Y-43210714D01*
X72119771Y-43210714D02*
X72119771Y-42839286D01*
X71519771Y-42639285D02*
X71519771Y-42267857D01*
X71519771Y-42267857D02*
X71748342Y-42467857D01*
X71748342Y-42467857D02*
X71748342Y-42382142D01*
X71748342Y-42382142D02*
X71776914Y-42325000D01*
X71776914Y-42325000D02*
X71805485Y-42296428D01*
X71805485Y-42296428D02*
X71862628Y-42267857D01*
X71862628Y-42267857D02*
X72005485Y-42267857D01*
X72005485Y-42267857D02*
X72062628Y-42296428D01*
X72062628Y-42296428D02*
X72091200Y-42325000D01*
X72091200Y-42325000D02*
X72119771Y-42382142D01*
X72119771Y-42382142D02*
X72119771Y-42553571D01*
X72119771Y-42553571D02*
X72091200Y-42610714D01*
X72091200Y-42610714D02*
X72062628Y-42639285D01*
X71519771Y-41753571D02*
X71519771Y-41867856D01*
X71519771Y-41867856D02*
X71548342Y-41924999D01*
X71548342Y-41924999D02*
X71576914Y-41953571D01*
X71576914Y-41953571D02*
X71662628Y-42010713D01*
X71662628Y-42010713D02*
X71776914Y-42039285D01*
X71776914Y-42039285D02*
X72005485Y-42039285D01*
X72005485Y-42039285D02*
X72062628Y-42010713D01*
X72062628Y-42010713D02*
X72091200Y-41982142D01*
X72091200Y-41982142D02*
X72119771Y-41924999D01*
X72119771Y-41924999D02*
X72119771Y-41810713D01*
X72119771Y-41810713D02*
X72091200Y-41753571D01*
X72091200Y-41753571D02*
X72062628Y-41724999D01*
X72062628Y-41724999D02*
X72005485Y-41696428D01*
X72005485Y-41696428D02*
X71862628Y-41696428D01*
X71862628Y-41696428D02*
X71805485Y-41724999D01*
X71805485Y-41724999D02*
X71776914Y-41753571D01*
X71776914Y-41753571D02*
X71748342Y-41810713D01*
X71748342Y-41810713D02*
X71748342Y-41924999D01*
X71748342Y-41924999D02*
X71776914Y-41982142D01*
X71776914Y-41982142D02*
X71805485Y-42010713D01*
X71805485Y-42010713D02*
X71862628Y-42039285D01*
X71519771Y-41153570D02*
X71519771Y-41439284D01*
X71519771Y-41439284D02*
X71805485Y-41467856D01*
X71805485Y-41467856D02*
X71776914Y-41439284D01*
X71776914Y-41439284D02*
X71748342Y-41382142D01*
X71748342Y-41382142D02*
X71748342Y-41239284D01*
X71748342Y-41239284D02*
X71776914Y-41182142D01*
X71776914Y-41182142D02*
X71805485Y-41153570D01*
X71805485Y-41153570D02*
X71862628Y-41124999D01*
X71862628Y-41124999D02*
X72005485Y-41124999D01*
X72005485Y-41124999D02*
X72062628Y-41153570D01*
X72062628Y-41153570D02*
X72091200Y-41182142D01*
X72091200Y-41182142D02*
X72119771Y-41239284D01*
X72119771Y-41239284D02*
X72119771Y-41382142D01*
X72119771Y-41382142D02*
X72091200Y-41439284D01*
X72091200Y-41439284D02*
X72062628Y-41467856D01*
X71948342Y-40896427D02*
X71948342Y-40610713D01*
X72119771Y-40953570D02*
X71519771Y-40753570D01*
X71519771Y-40753570D02*
X72119771Y-40553570D01*
X72119771Y-40353569D02*
X71519771Y-40353569D01*
X72119771Y-40067855D02*
X71519771Y-40067855D01*
X71519771Y-40067855D02*
X71519771Y-39924998D01*
X71519771Y-39924998D02*
X71548342Y-39839284D01*
X71548342Y-39839284D02*
X71605485Y-39782141D01*
X71605485Y-39782141D02*
X71662628Y-39753570D01*
X71662628Y-39753570D02*
X71776914Y-39724998D01*
X71776914Y-39724998D02*
X71862628Y-39724998D01*
X71862628Y-39724998D02*
X71976914Y-39753570D01*
X71976914Y-39753570D02*
X72034057Y-39782141D01*
X72034057Y-39782141D02*
X72091200Y-39839284D01*
X72091200Y-39839284D02*
X72119771Y-39924998D01*
X72119771Y-39924998D02*
X72119771Y-40067855D01*
X66289819Y-46540699D02*
X66527914Y-46540699D01*
X66432676Y-46778794D02*
X66527914Y-46540699D01*
X66527914Y-46540699D02*
X66432676Y-46302604D01*
X66718390Y-46683556D02*
X66527914Y-46540699D01*
X66527914Y-46540699D02*
X66718390Y-46397842D01*
X66289819Y-46540699D02*
X66527914Y-46540699D01*
X66432676Y-46778794D02*
X66527914Y-46540699D01*
X66527914Y-46540699D02*
X66432676Y-46302604D01*
X66718390Y-46683556D02*
X66527914Y-46540699D01*
X66527914Y-46540699D02*
X66718390Y-46397842D01*
X50200000Y-47787628D02*
X50171428Y-47816200D01*
X50171428Y-47816200D02*
X50085714Y-47844771D01*
X50085714Y-47844771D02*
X50028571Y-47844771D01*
X50028571Y-47844771D02*
X49942857Y-47816200D01*
X49942857Y-47816200D02*
X49885714Y-47759057D01*
X49885714Y-47759057D02*
X49857143Y-47701914D01*
X49857143Y-47701914D02*
X49828571Y-47587628D01*
X49828571Y-47587628D02*
X49828571Y-47501914D01*
X49828571Y-47501914D02*
X49857143Y-47387628D01*
X49857143Y-47387628D02*
X49885714Y-47330485D01*
X49885714Y-47330485D02*
X49942857Y-47273342D01*
X49942857Y-47273342D02*
X50028571Y-47244771D01*
X50028571Y-47244771D02*
X50085714Y-47244771D01*
X50085714Y-47244771D02*
X50171428Y-47273342D01*
X50171428Y-47273342D02*
X50200000Y-47301914D01*
X50714286Y-47244771D02*
X50600000Y-47244771D01*
X50600000Y-47244771D02*
X50542857Y-47273342D01*
X50542857Y-47273342D02*
X50514286Y-47301914D01*
X50514286Y-47301914D02*
X50457143Y-47387628D01*
X50457143Y-47387628D02*
X50428571Y-47501914D01*
X50428571Y-47501914D02*
X50428571Y-47730485D01*
X50428571Y-47730485D02*
X50457143Y-47787628D01*
X50457143Y-47787628D02*
X50485714Y-47816200D01*
X50485714Y-47816200D02*
X50542857Y-47844771D01*
X50542857Y-47844771D02*
X50657143Y-47844771D01*
X50657143Y-47844771D02*
X50714286Y-47816200D01*
X50714286Y-47816200D02*
X50742857Y-47787628D01*
X50742857Y-47787628D02*
X50771428Y-47730485D01*
X50771428Y-47730485D02*
X50771428Y-47587628D01*
X50771428Y-47587628D02*
X50742857Y-47530485D01*
X50742857Y-47530485D02*
X50714286Y-47501914D01*
X50714286Y-47501914D02*
X50657143Y-47473342D01*
X50657143Y-47473342D02*
X50542857Y-47473342D01*
X50542857Y-47473342D02*
X50485714Y-47501914D01*
X50485714Y-47501914D02*
X50457143Y-47530485D01*
X50457143Y-47530485D02*
X50428571Y-47587628D01*
X66691200Y-24996428D02*
X66719771Y-24910714D01*
X66719771Y-24910714D02*
X66719771Y-24767856D01*
X66719771Y-24767856D02*
X66691200Y-24710714D01*
X66691200Y-24710714D02*
X66662628Y-24682142D01*
X66662628Y-24682142D02*
X66605485Y-24653571D01*
X66605485Y-24653571D02*
X66548342Y-24653571D01*
X66548342Y-24653571D02*
X66491200Y-24682142D01*
X66491200Y-24682142D02*
X66462628Y-24710714D01*
X66462628Y-24710714D02*
X66434057Y-24767856D01*
X66434057Y-24767856D02*
X66405485Y-24882142D01*
X66405485Y-24882142D02*
X66376914Y-24939285D01*
X66376914Y-24939285D02*
X66348342Y-24967856D01*
X66348342Y-24967856D02*
X66291200Y-24996428D01*
X66291200Y-24996428D02*
X66234057Y-24996428D01*
X66234057Y-24996428D02*
X66176914Y-24967856D01*
X66176914Y-24967856D02*
X66148342Y-24939285D01*
X66148342Y-24939285D02*
X66119771Y-24882142D01*
X66119771Y-24882142D02*
X66119771Y-24739285D01*
X66119771Y-24739285D02*
X66148342Y-24653571D01*
X66719771Y-24396427D02*
X66119771Y-24396427D01*
X66119771Y-24396427D02*
X66548342Y-24196427D01*
X66548342Y-24196427D02*
X66119771Y-23996427D01*
X66119771Y-23996427D02*
X66719771Y-23996427D01*
X66548342Y-23739285D02*
X66548342Y-23453571D01*
X66719771Y-23796428D02*
X66119771Y-23596428D01*
X66119771Y-23596428D02*
X66719771Y-23396428D01*
X51450000Y-47844771D02*
X51250000Y-47559057D01*
X51107143Y-47844771D02*
X51107143Y-47244771D01*
X51107143Y-47244771D02*
X51335714Y-47244771D01*
X51335714Y-47244771D02*
X51392857Y-47273342D01*
X51392857Y-47273342D02*
X51421428Y-47301914D01*
X51421428Y-47301914D02*
X51450000Y-47359057D01*
X51450000Y-47359057D02*
X51450000Y-47444771D01*
X51450000Y-47444771D02*
X51421428Y-47501914D01*
X51421428Y-47501914D02*
X51392857Y-47530485D01*
X51392857Y-47530485D02*
X51335714Y-47559057D01*
X51335714Y-47559057D02*
X51107143Y-47559057D01*
X51964286Y-47244771D02*
X51850000Y-47244771D01*
X51850000Y-47244771D02*
X51792857Y-47273342D01*
X51792857Y-47273342D02*
X51764286Y-47301914D01*
X51764286Y-47301914D02*
X51707143Y-47387628D01*
X51707143Y-47387628D02*
X51678571Y-47501914D01*
X51678571Y-47501914D02*
X51678571Y-47730485D01*
X51678571Y-47730485D02*
X51707143Y-47787628D01*
X51707143Y-47787628D02*
X51735714Y-47816200D01*
X51735714Y-47816200D02*
X51792857Y-47844771D01*
X51792857Y-47844771D02*
X51907143Y-47844771D01*
X51907143Y-47844771D02*
X51964286Y-47816200D01*
X51964286Y-47816200D02*
X51992857Y-47787628D01*
X51992857Y-47787628D02*
X52021428Y-47730485D01*
X52021428Y-47730485D02*
X52021428Y-47587628D01*
X52021428Y-47587628D02*
X51992857Y-47530485D01*
X51992857Y-47530485D02*
X51964286Y-47501914D01*
X51964286Y-47501914D02*
X51907143Y-47473342D01*
X51907143Y-47473342D02*
X51792857Y-47473342D01*
X51792857Y-47473342D02*
X51735714Y-47501914D01*
X51735714Y-47501914D02*
X51707143Y-47530485D01*
X51707143Y-47530485D02*
X51678571Y-47587628D01*
X78669771Y-35975000D02*
X79098342Y-35975000D01*
X79098342Y-35975000D02*
X79184057Y-36003571D01*
X79184057Y-36003571D02*
X79241200Y-36060714D01*
X79241200Y-36060714D02*
X79269771Y-36146428D01*
X79269771Y-36146428D02*
X79269771Y-36203571D01*
X79269771Y-35689285D02*
X78669771Y-35689285D01*
X78669771Y-35689285D02*
X78669771Y-35460714D01*
X78669771Y-35460714D02*
X78698342Y-35403571D01*
X78698342Y-35403571D02*
X78726914Y-35375000D01*
X78726914Y-35375000D02*
X78784057Y-35346428D01*
X78784057Y-35346428D02*
X78869771Y-35346428D01*
X78869771Y-35346428D02*
X78926914Y-35375000D01*
X78926914Y-35375000D02*
X78955485Y-35403571D01*
X78955485Y-35403571D02*
X78984057Y-35460714D01*
X78984057Y-35460714D02*
X78984057Y-35689285D01*
X78869771Y-34832143D02*
X79269771Y-34832143D01*
X78641200Y-34975000D02*
X79069771Y-35117857D01*
X79069771Y-35117857D02*
X79069771Y-34746428D01*
X57230921Y-21442856D02*
X56630921Y-21442856D01*
X56630921Y-21442856D02*
X56630921Y-21299999D01*
X56630921Y-21299999D02*
X56659492Y-21214285D01*
X56659492Y-21214285D02*
X56716635Y-21157142D01*
X56716635Y-21157142D02*
X56773778Y-21128571D01*
X56773778Y-21128571D02*
X56888064Y-21099999D01*
X56888064Y-21099999D02*
X56973778Y-21099999D01*
X56973778Y-21099999D02*
X57088064Y-21128571D01*
X57088064Y-21128571D02*
X57145207Y-21157142D01*
X57145207Y-21157142D02*
X57202350Y-21214285D01*
X57202350Y-21214285D02*
X57230921Y-21299999D01*
X57230921Y-21299999D02*
X57230921Y-21442856D01*
X56688064Y-20871428D02*
X56659492Y-20842856D01*
X56659492Y-20842856D02*
X56630921Y-20785714D01*
X56630921Y-20785714D02*
X56630921Y-20642856D01*
X56630921Y-20642856D02*
X56659492Y-20585714D01*
X56659492Y-20585714D02*
X56688064Y-20557142D01*
X56688064Y-20557142D02*
X56745207Y-20528571D01*
X56745207Y-20528571D02*
X56802350Y-20528571D01*
X56802350Y-20528571D02*
X56888064Y-20557142D01*
X56888064Y-20557142D02*
X57230921Y-20899999D01*
X57230921Y-20899999D02*
X57230921Y-20528571D01*
X52700000Y-47844771D02*
X52500000Y-47559057D01*
X52357143Y-47844771D02*
X52357143Y-47244771D01*
X52357143Y-47244771D02*
X52585714Y-47244771D01*
X52585714Y-47244771D02*
X52642857Y-47273342D01*
X52642857Y-47273342D02*
X52671428Y-47301914D01*
X52671428Y-47301914D02*
X52700000Y-47359057D01*
X52700000Y-47359057D02*
X52700000Y-47444771D01*
X52700000Y-47444771D02*
X52671428Y-47501914D01*
X52671428Y-47501914D02*
X52642857Y-47530485D01*
X52642857Y-47530485D02*
X52585714Y-47559057D01*
X52585714Y-47559057D02*
X52357143Y-47559057D01*
X52900000Y-47244771D02*
X53300000Y-47244771D01*
X53300000Y-47244771D02*
X53042857Y-47844771D01*
X76669771Y-36232143D02*
X76669771Y-35889286D01*
X77269771Y-36060714D02*
X76669771Y-36060714D01*
X77269771Y-35689285D02*
X76669771Y-35689285D01*
X76669771Y-35689285D02*
X76669771Y-35460714D01*
X76669771Y-35460714D02*
X76698342Y-35403571D01*
X76698342Y-35403571D02*
X76726914Y-35375000D01*
X76726914Y-35375000D02*
X76784057Y-35346428D01*
X76784057Y-35346428D02*
X76869771Y-35346428D01*
X76869771Y-35346428D02*
X76926914Y-35375000D01*
X76926914Y-35375000D02*
X76955485Y-35403571D01*
X76955485Y-35403571D02*
X76984057Y-35460714D01*
X76984057Y-35460714D02*
X76984057Y-35689285D01*
X76669771Y-34803571D02*
X76669771Y-35089285D01*
X76669771Y-35089285D02*
X76955485Y-35117857D01*
X76955485Y-35117857D02*
X76926914Y-35089285D01*
X76926914Y-35089285D02*
X76898342Y-35032143D01*
X76898342Y-35032143D02*
X76898342Y-34889285D01*
X76898342Y-34889285D02*
X76926914Y-34832143D01*
X76926914Y-34832143D02*
X76955485Y-34803571D01*
X76955485Y-34803571D02*
X77012628Y-34775000D01*
X77012628Y-34775000D02*
X77155485Y-34775000D01*
X77155485Y-34775000D02*
X77212628Y-34803571D01*
X77212628Y-34803571D02*
X77241200Y-34832143D01*
X77241200Y-34832143D02*
X77269771Y-34889285D01*
X77269771Y-34889285D02*
X77269771Y-35032143D01*
X77269771Y-35032143D02*
X77241200Y-35089285D01*
X77241200Y-35089285D02*
X77212628Y-35117857D01*
X22550000Y-33469771D02*
X22350000Y-33184057D01*
X22207143Y-33469771D02*
X22207143Y-32869771D01*
X22207143Y-32869771D02*
X22435714Y-32869771D01*
X22435714Y-32869771D02*
X22492857Y-32898342D01*
X22492857Y-32898342D02*
X22521428Y-32926914D01*
X22521428Y-32926914D02*
X22550000Y-32984057D01*
X22550000Y-32984057D02*
X22550000Y-33069771D01*
X22550000Y-33069771D02*
X22521428Y-33126914D01*
X22521428Y-33126914D02*
X22492857Y-33155485D01*
X22492857Y-33155485D02*
X22435714Y-33184057D01*
X22435714Y-33184057D02*
X22207143Y-33184057D01*
X23092857Y-32869771D02*
X22807143Y-32869771D01*
X22807143Y-32869771D02*
X22778571Y-33155485D01*
X22778571Y-33155485D02*
X22807143Y-33126914D01*
X22807143Y-33126914D02*
X22864286Y-33098342D01*
X22864286Y-33098342D02*
X23007143Y-33098342D01*
X23007143Y-33098342D02*
X23064286Y-33126914D01*
X23064286Y-33126914D02*
X23092857Y-33155485D01*
X23092857Y-33155485D02*
X23121428Y-33212628D01*
X23121428Y-33212628D02*
X23121428Y-33355485D01*
X23121428Y-33355485D02*
X23092857Y-33412628D01*
X23092857Y-33412628D02*
X23064286Y-33441200D01*
X23064286Y-33441200D02*
X23007143Y-33469771D01*
X23007143Y-33469771D02*
X22864286Y-33469771D01*
X22864286Y-33469771D02*
X22807143Y-33441200D01*
X22807143Y-33441200D02*
X22778571Y-33412628D01*
X50250000Y-48762628D02*
X50221428Y-48791200D01*
X50221428Y-48791200D02*
X50135714Y-48819771D01*
X50135714Y-48819771D02*
X50078571Y-48819771D01*
X50078571Y-48819771D02*
X49992857Y-48791200D01*
X49992857Y-48791200D02*
X49935714Y-48734057D01*
X49935714Y-48734057D02*
X49907143Y-48676914D01*
X49907143Y-48676914D02*
X49878571Y-48562628D01*
X49878571Y-48562628D02*
X49878571Y-48476914D01*
X49878571Y-48476914D02*
X49907143Y-48362628D01*
X49907143Y-48362628D02*
X49935714Y-48305485D01*
X49935714Y-48305485D02*
X49992857Y-48248342D01*
X49992857Y-48248342D02*
X50078571Y-48219771D01*
X50078571Y-48219771D02*
X50135714Y-48219771D01*
X50135714Y-48219771D02*
X50221428Y-48248342D01*
X50221428Y-48248342D02*
X50250000Y-48276914D01*
X50792857Y-48219771D02*
X50507143Y-48219771D01*
X50507143Y-48219771D02*
X50478571Y-48505485D01*
X50478571Y-48505485D02*
X50507143Y-48476914D01*
X50507143Y-48476914D02*
X50564286Y-48448342D01*
X50564286Y-48448342D02*
X50707143Y-48448342D01*
X50707143Y-48448342D02*
X50764286Y-48476914D01*
X50764286Y-48476914D02*
X50792857Y-48505485D01*
X50792857Y-48505485D02*
X50821428Y-48562628D01*
X50821428Y-48562628D02*
X50821428Y-48705485D01*
X50821428Y-48705485D02*
X50792857Y-48762628D01*
X50792857Y-48762628D02*
X50764286Y-48791200D01*
X50764286Y-48791200D02*
X50707143Y-48819771D01*
X50707143Y-48819771D02*
X50564286Y-48819771D01*
X50564286Y-48819771D02*
X50507143Y-48791200D01*
X50507143Y-48791200D02*
X50478571Y-48762628D01*
X75669771Y-51232143D02*
X75669771Y-50889286D01*
X76269771Y-51060714D02*
X75669771Y-51060714D01*
X76269771Y-50689285D02*
X75669771Y-50689285D01*
X75669771Y-50689285D02*
X75669771Y-50460714D01*
X75669771Y-50460714D02*
X75698342Y-50403571D01*
X75698342Y-50403571D02*
X75726914Y-50375000D01*
X75726914Y-50375000D02*
X75784057Y-50346428D01*
X75784057Y-50346428D02*
X75869771Y-50346428D01*
X75869771Y-50346428D02*
X75926914Y-50375000D01*
X75926914Y-50375000D02*
X75955485Y-50403571D01*
X75955485Y-50403571D02*
X75984057Y-50460714D01*
X75984057Y-50460714D02*
X75984057Y-50689285D01*
X75726914Y-50117857D02*
X75698342Y-50089285D01*
X75698342Y-50089285D02*
X75669771Y-50032143D01*
X75669771Y-50032143D02*
X75669771Y-49889285D01*
X75669771Y-49889285D02*
X75698342Y-49832143D01*
X75698342Y-49832143D02*
X75726914Y-49803571D01*
X75726914Y-49803571D02*
X75784057Y-49775000D01*
X75784057Y-49775000D02*
X75841200Y-49775000D01*
X75841200Y-49775000D02*
X75926914Y-49803571D01*
X75926914Y-49803571D02*
X76269771Y-50146428D01*
X76269771Y-50146428D02*
X76269771Y-49775000D01*
X77669771Y-50975000D02*
X78098342Y-50975000D01*
X78098342Y-50975000D02*
X78184057Y-51003571D01*
X78184057Y-51003571D02*
X78241200Y-51060714D01*
X78241200Y-51060714D02*
X78269771Y-51146428D01*
X78269771Y-51146428D02*
X78269771Y-51203571D01*
X78269771Y-50689285D02*
X77669771Y-50689285D01*
X77669771Y-50689285D02*
X77669771Y-50460714D01*
X77669771Y-50460714D02*
X77698342Y-50403571D01*
X77698342Y-50403571D02*
X77726914Y-50375000D01*
X77726914Y-50375000D02*
X77784057Y-50346428D01*
X77784057Y-50346428D02*
X77869771Y-50346428D01*
X77869771Y-50346428D02*
X77926914Y-50375000D01*
X77926914Y-50375000D02*
X77955485Y-50403571D01*
X77955485Y-50403571D02*
X77984057Y-50460714D01*
X77984057Y-50460714D02*
X77984057Y-50689285D01*
X77726914Y-50117857D02*
X77698342Y-50089285D01*
X77698342Y-50089285D02*
X77669771Y-50032143D01*
X77669771Y-50032143D02*
X77669771Y-49889285D01*
X77669771Y-49889285D02*
X77698342Y-49832143D01*
X77698342Y-49832143D02*
X77726914Y-49803571D01*
X77726914Y-49803571D02*
X77784057Y-49775000D01*
X77784057Y-49775000D02*
X77841200Y-49775000D01*
X77841200Y-49775000D02*
X77926914Y-49803571D01*
X77926914Y-49803571D02*
X78269771Y-50146428D01*
X78269771Y-50146428D02*
X78269771Y-49775000D01*
X77669771Y-35975000D02*
X78098342Y-35975000D01*
X78098342Y-35975000D02*
X78184057Y-36003571D01*
X78184057Y-36003571D02*
X78241200Y-36060714D01*
X78241200Y-36060714D02*
X78269771Y-36146428D01*
X78269771Y-36146428D02*
X78269771Y-36203571D01*
X78269771Y-35689285D02*
X77669771Y-35689285D01*
X77669771Y-35689285D02*
X77669771Y-35460714D01*
X77669771Y-35460714D02*
X77698342Y-35403571D01*
X77698342Y-35403571D02*
X77726914Y-35375000D01*
X77726914Y-35375000D02*
X77784057Y-35346428D01*
X77784057Y-35346428D02*
X77869771Y-35346428D01*
X77869771Y-35346428D02*
X77926914Y-35375000D01*
X77926914Y-35375000D02*
X77955485Y-35403571D01*
X77955485Y-35403571D02*
X77984057Y-35460714D01*
X77984057Y-35460714D02*
X77984057Y-35689285D01*
X77669771Y-35146428D02*
X77669771Y-34775000D01*
X77669771Y-34775000D02*
X77898342Y-34975000D01*
X77898342Y-34975000D02*
X77898342Y-34889285D01*
X77898342Y-34889285D02*
X77926914Y-34832143D01*
X77926914Y-34832143D02*
X77955485Y-34803571D01*
X77955485Y-34803571D02*
X78012628Y-34775000D01*
X78012628Y-34775000D02*
X78155485Y-34775000D01*
X78155485Y-34775000D02*
X78212628Y-34803571D01*
X78212628Y-34803571D02*
X78241200Y-34832143D01*
X78241200Y-34832143D02*
X78269771Y-34889285D01*
X78269771Y-34889285D02*
X78269771Y-35060714D01*
X78269771Y-35060714D02*
X78241200Y-35117857D01*
X78241200Y-35117857D02*
X78212628Y-35146428D01*
X75669771Y-36232143D02*
X75669771Y-35889286D01*
X76269771Y-36060714D02*
X75669771Y-36060714D01*
X76269771Y-35689285D02*
X75669771Y-35689285D01*
X75669771Y-35689285D02*
X75669771Y-35460714D01*
X75669771Y-35460714D02*
X75698342Y-35403571D01*
X75698342Y-35403571D02*
X75726914Y-35375000D01*
X75726914Y-35375000D02*
X75784057Y-35346428D01*
X75784057Y-35346428D02*
X75869771Y-35346428D01*
X75869771Y-35346428D02*
X75926914Y-35375000D01*
X75926914Y-35375000D02*
X75955485Y-35403571D01*
X75955485Y-35403571D02*
X75984057Y-35460714D01*
X75984057Y-35460714D02*
X75984057Y-35689285D01*
X75669771Y-35146428D02*
X75669771Y-34775000D01*
X75669771Y-34775000D02*
X75898342Y-34975000D01*
X75898342Y-34975000D02*
X75898342Y-34889285D01*
X75898342Y-34889285D02*
X75926914Y-34832143D01*
X75926914Y-34832143D02*
X75955485Y-34803571D01*
X75955485Y-34803571D02*
X76012628Y-34775000D01*
X76012628Y-34775000D02*
X76155485Y-34775000D01*
X76155485Y-34775000D02*
X76212628Y-34803571D01*
X76212628Y-34803571D02*
X76241200Y-34832143D01*
X76241200Y-34832143D02*
X76269771Y-34889285D01*
X76269771Y-34889285D02*
X76269771Y-35060714D01*
X76269771Y-35060714D02*
X76241200Y-35117857D01*
X76241200Y-35117857D02*
X76212628Y-35146428D01*
X53604819Y-54921428D02*
X53128628Y-55254761D01*
X53604819Y-55492856D02*
X52604819Y-55492856D01*
X52604819Y-55492856D02*
X52604819Y-55111904D01*
X52604819Y-55111904D02*
X52652438Y-55016666D01*
X52652438Y-55016666D02*
X52700057Y-54969047D01*
X52700057Y-54969047D02*
X52795295Y-54921428D01*
X52795295Y-54921428D02*
X52938152Y-54921428D01*
X52938152Y-54921428D02*
X53033390Y-54969047D01*
X53033390Y-54969047D02*
X53081009Y-55016666D01*
X53081009Y-55016666D02*
X53128628Y-55111904D01*
X53128628Y-55111904D02*
X53128628Y-55492856D01*
X53557200Y-54111904D02*
X53604819Y-54207142D01*
X53604819Y-54207142D02*
X53604819Y-54397618D01*
X53604819Y-54397618D02*
X53557200Y-54492856D01*
X53557200Y-54492856D02*
X53461961Y-54540475D01*
X53461961Y-54540475D02*
X53081009Y-54540475D01*
X53081009Y-54540475D02*
X52985771Y-54492856D01*
X52985771Y-54492856D02*
X52938152Y-54397618D01*
X52938152Y-54397618D02*
X52938152Y-54207142D01*
X52938152Y-54207142D02*
X52985771Y-54111904D01*
X52985771Y-54111904D02*
X53081009Y-54064285D01*
X53081009Y-54064285D02*
X53176247Y-54064285D01*
X53176247Y-54064285D02*
X53271485Y-54540475D01*
X52938152Y-53207142D02*
X53747676Y-53207142D01*
X53747676Y-53207142D02*
X53842914Y-53254761D01*
X53842914Y-53254761D02*
X53890533Y-53302380D01*
X53890533Y-53302380D02*
X53938152Y-53397618D01*
X53938152Y-53397618D02*
X53938152Y-53540475D01*
X53938152Y-53540475D02*
X53890533Y-53635713D01*
X53557200Y-53207142D02*
X53604819Y-53302380D01*
X53604819Y-53302380D02*
X53604819Y-53492856D01*
X53604819Y-53492856D02*
X53557200Y-53588094D01*
X53557200Y-53588094D02*
X53509580Y-53635713D01*
X53509580Y-53635713D02*
X53414342Y-53683332D01*
X53414342Y-53683332D02*
X53128628Y-53683332D01*
X53128628Y-53683332D02*
X53033390Y-53635713D01*
X53033390Y-53635713D02*
X52985771Y-53588094D01*
X52985771Y-53588094D02*
X52938152Y-53492856D01*
X52938152Y-53492856D02*
X52938152Y-53302380D01*
X52938152Y-53302380D02*
X52985771Y-53207142D01*
X37500000Y-45012628D02*
X37471428Y-45041200D01*
X37471428Y-45041200D02*
X37385714Y-45069771D01*
X37385714Y-45069771D02*
X37328571Y-45069771D01*
X37328571Y-45069771D02*
X37242857Y-45041200D01*
X37242857Y-45041200D02*
X37185714Y-44984057D01*
X37185714Y-44984057D02*
X37157143Y-44926914D01*
X37157143Y-44926914D02*
X37128571Y-44812628D01*
X37128571Y-44812628D02*
X37128571Y-44726914D01*
X37128571Y-44726914D02*
X37157143Y-44612628D01*
X37157143Y-44612628D02*
X37185714Y-44555485D01*
X37185714Y-44555485D02*
X37242857Y-44498342D01*
X37242857Y-44498342D02*
X37328571Y-44469771D01*
X37328571Y-44469771D02*
X37385714Y-44469771D01*
X37385714Y-44469771D02*
X37471428Y-44498342D01*
X37471428Y-44498342D02*
X37500000Y-44526914D01*
X38014286Y-44669771D02*
X38014286Y-45069771D01*
X37871428Y-44441200D02*
X37728571Y-44869771D01*
X37728571Y-44869771D02*
X38100000Y-44869771D01*
X52700000Y-48844771D02*
X52500000Y-48559057D01*
X52357143Y-48844771D02*
X52357143Y-48244771D01*
X52357143Y-48244771D02*
X52585714Y-48244771D01*
X52585714Y-48244771D02*
X52642857Y-48273342D01*
X52642857Y-48273342D02*
X52671428Y-48301914D01*
X52671428Y-48301914D02*
X52700000Y-48359057D01*
X52700000Y-48359057D02*
X52700000Y-48444771D01*
X52700000Y-48444771D02*
X52671428Y-48501914D01*
X52671428Y-48501914D02*
X52642857Y-48530485D01*
X52642857Y-48530485D02*
X52585714Y-48559057D01*
X52585714Y-48559057D02*
X52357143Y-48559057D01*
X52900000Y-48244771D02*
X53271428Y-48244771D01*
X53271428Y-48244771D02*
X53071428Y-48473342D01*
X53071428Y-48473342D02*
X53157143Y-48473342D01*
X53157143Y-48473342D02*
X53214286Y-48501914D01*
X53214286Y-48501914D02*
X53242857Y-48530485D01*
X53242857Y-48530485D02*
X53271428Y-48587628D01*
X53271428Y-48587628D02*
X53271428Y-48730485D01*
X53271428Y-48730485D02*
X53242857Y-48787628D01*
X53242857Y-48787628D02*
X53214286Y-48816200D01*
X53214286Y-48816200D02*
X53157143Y-48844771D01*
X53157143Y-48844771D02*
X52985714Y-48844771D01*
X52985714Y-48844771D02*
X52928571Y-48816200D01*
X52928571Y-48816200D02*
X52900000Y-48787628D01*
X53861150Y-22269771D02*
X53661150Y-21984057D01*
X53518293Y-22269771D02*
X53518293Y-21669771D01*
X53518293Y-21669771D02*
X53746864Y-21669771D01*
X53746864Y-21669771D02*
X53804007Y-21698342D01*
X53804007Y-21698342D02*
X53832578Y-21726914D01*
X53832578Y-21726914D02*
X53861150Y-21784057D01*
X53861150Y-21784057D02*
X53861150Y-21869771D01*
X53861150Y-21869771D02*
X53832578Y-21926914D01*
X53832578Y-21926914D02*
X53804007Y-21955485D01*
X53804007Y-21955485D02*
X53746864Y-21984057D01*
X53746864Y-21984057D02*
X53518293Y-21984057D01*
X54432578Y-22269771D02*
X54089721Y-22269771D01*
X54261150Y-22269771D02*
X54261150Y-21669771D01*
X54261150Y-21669771D02*
X54204007Y-21755485D01*
X54204007Y-21755485D02*
X54146864Y-21812628D01*
X54146864Y-21812628D02*
X54089721Y-21841200D01*
X22207143Y-32469771D02*
X22207143Y-31869771D01*
X22207143Y-31869771D02*
X22350000Y-31869771D01*
X22350000Y-31869771D02*
X22435714Y-31898342D01*
X22435714Y-31898342D02*
X22492857Y-31955485D01*
X22492857Y-31955485D02*
X22521428Y-32012628D01*
X22521428Y-32012628D02*
X22550000Y-32126914D01*
X22550000Y-32126914D02*
X22550000Y-32212628D01*
X22550000Y-32212628D02*
X22521428Y-32326914D01*
X22521428Y-32326914D02*
X22492857Y-32384057D01*
X22492857Y-32384057D02*
X22435714Y-32441200D01*
X22435714Y-32441200D02*
X22350000Y-32469771D01*
X22350000Y-32469771D02*
X22207143Y-32469771D01*
X23121428Y-32469771D02*
X22778571Y-32469771D01*
X22950000Y-32469771D02*
X22950000Y-31869771D01*
X22950000Y-31869771D02*
X22892857Y-31955485D01*
X22892857Y-31955485D02*
X22835714Y-32012628D01*
X22835714Y-32012628D02*
X22778571Y-32041200D01*
X24940476Y-40454819D02*
X25607142Y-40454819D01*
X25607142Y-40454819D02*
X24940476Y-41454819D01*
X24940476Y-41454819D02*
X25607142Y-41454819D01*
X25988095Y-40931009D02*
X26321428Y-40931009D01*
X26464285Y-41454819D02*
X25988095Y-41454819D01*
X25988095Y-41454819D02*
X25988095Y-40454819D01*
X25988095Y-40454819D02*
X26464285Y-40454819D01*
X26892857Y-41454819D02*
X26892857Y-40454819D01*
X26892857Y-40454819D02*
X27130952Y-40454819D01*
X27130952Y-40454819D02*
X27273809Y-40502438D01*
X27273809Y-40502438D02*
X27369047Y-40597676D01*
X27369047Y-40597676D02*
X27416666Y-40692914D01*
X27416666Y-40692914D02*
X27464285Y-40883390D01*
X27464285Y-40883390D02*
X27464285Y-41026247D01*
X27464285Y-41026247D02*
X27416666Y-41216723D01*
X27416666Y-41216723D02*
X27369047Y-41311961D01*
X27369047Y-41311961D02*
X27273809Y-41407200D01*
X27273809Y-41407200D02*
X27130952Y-41454819D01*
X27130952Y-41454819D02*
X26892857Y-41454819D01*
X27892857Y-41073866D02*
X28654762Y-41073866D01*
X29464285Y-40931009D02*
X29130952Y-40931009D01*
X29130952Y-41454819D02*
X29130952Y-40454819D01*
X29130952Y-40454819D02*
X29607142Y-40454819D01*
X30035714Y-41454819D02*
X30226190Y-41454819D01*
X30226190Y-41454819D02*
X30321428Y-41407200D01*
X30321428Y-41407200D02*
X30369047Y-41359580D01*
X30369047Y-41359580D02*
X30464285Y-41216723D01*
X30464285Y-41216723D02*
X30511904Y-41026247D01*
X30511904Y-41026247D02*
X30511904Y-40645295D01*
X30511904Y-40645295D02*
X30464285Y-40550057D01*
X30464285Y-40550057D02*
X30416666Y-40502438D01*
X30416666Y-40502438D02*
X30321428Y-40454819D01*
X30321428Y-40454819D02*
X30130952Y-40454819D01*
X30130952Y-40454819D02*
X30035714Y-40502438D01*
X30035714Y-40502438D02*
X29988095Y-40550057D01*
X29988095Y-40550057D02*
X29940476Y-40645295D01*
X29940476Y-40645295D02*
X29940476Y-40883390D01*
X29940476Y-40883390D02*
X29988095Y-40978628D01*
X29988095Y-40978628D02*
X30035714Y-41026247D01*
X30035714Y-41026247D02*
X30130952Y-41073866D01*
X30130952Y-41073866D02*
X30321428Y-41073866D01*
X30321428Y-41073866D02*
X30416666Y-41026247D01*
X30416666Y-41026247D02*
X30464285Y-40978628D01*
X30464285Y-40978628D02*
X30511904Y-40883390D01*
X30940476Y-41454819D02*
X30940476Y-40454819D01*
X30940476Y-40454819D02*
X31321428Y-40454819D01*
X31321428Y-40454819D02*
X31416666Y-40502438D01*
X31416666Y-40502438D02*
X31464285Y-40550057D01*
X31464285Y-40550057D02*
X31511904Y-40645295D01*
X31511904Y-40645295D02*
X31511904Y-40788152D01*
X31511904Y-40788152D02*
X31464285Y-40883390D01*
X31464285Y-40883390D02*
X31416666Y-40931009D01*
X31416666Y-40931009D02*
X31321428Y-40978628D01*
X31321428Y-40978628D02*
X30940476Y-40978628D01*
X51450000Y-48844771D02*
X51250000Y-48559057D01*
X51107143Y-48844771D02*
X51107143Y-48244771D01*
X51107143Y-48244771D02*
X51335714Y-48244771D01*
X51335714Y-48244771D02*
X51392857Y-48273342D01*
X51392857Y-48273342D02*
X51421428Y-48301914D01*
X51421428Y-48301914D02*
X51450000Y-48359057D01*
X51450000Y-48359057D02*
X51450000Y-48444771D01*
X51450000Y-48444771D02*
X51421428Y-48501914D01*
X51421428Y-48501914D02*
X51392857Y-48530485D01*
X51392857Y-48530485D02*
X51335714Y-48559057D01*
X51335714Y-48559057D02*
X51107143Y-48559057D01*
X51678571Y-48301914D02*
X51707143Y-48273342D01*
X51707143Y-48273342D02*
X51764286Y-48244771D01*
X51764286Y-48244771D02*
X51907143Y-48244771D01*
X51907143Y-48244771D02*
X51964286Y-48273342D01*
X51964286Y-48273342D02*
X51992857Y-48301914D01*
X51992857Y-48301914D02*
X52021428Y-48359057D01*
X52021428Y-48359057D02*
X52021428Y-48416200D01*
X52021428Y-48416200D02*
X51992857Y-48501914D01*
X51992857Y-48501914D02*
X51650000Y-48844771D01*
X51650000Y-48844771D02*
X52021428Y-48844771D01*
D12*
%TO.C,TP4*%
X40835500Y-41335500D02*
X40835500Y-44764500D01*
X40835500Y-44764500D02*
X44264500Y-44764500D01*
X44264500Y-41335500D02*
X40835500Y-41335500D01*
X44264500Y-44764500D02*
X44264500Y-41335500D01*
D13*
X46423500Y-43050000D02*
G75*
G02*
X45661500Y-43050000I-381000J0D01*
G01*
X45661500Y-43050000D02*
G75*
G02*
X46423500Y-43050000I381000J0D01*
G01*
D12*
%TO.C,JP1*%
X65776000Y-47275300D02*
X65776000Y-52634700D01*
X65776000Y-52634700D02*
X68824000Y-52634700D01*
X68824000Y-47275300D02*
X65776000Y-47275300D01*
X68824000Y-52634700D02*
X68824000Y-47275300D01*
D13*
X67681000Y-53269700D02*
G75*
G02*
X66919000Y-53269700I-381000J0D01*
G01*
X66919000Y-53269700D02*
G75*
G02*
X67681000Y-53269700I381000J0D01*
G01*
D14*
%TO.C,L1*%
X58631350Y-28154378D02*
X58631350Y-28953622D01*
X59751350Y-28154378D02*
X59751350Y-28953622D01*
%TO.C,C2*%
X56024250Y-28954851D02*
X56024250Y-28432347D01*
X57494250Y-28954851D02*
X57494250Y-28432347D01*
D12*
%TO.C,INPUT*%
X23373001Y-48223000D02*
X23373001Y-49069460D01*
X23373001Y-52630540D02*
X23373001Y-53477000D01*
X23373001Y-53477000D02*
X25820362Y-53477000D01*
X25820362Y-48223000D02*
X23373001Y-48223000D01*
X43679640Y-53477000D02*
X46127001Y-53477000D01*
X46127001Y-48223000D02*
X43679640Y-48223000D01*
X46127001Y-49069460D02*
X46127001Y-48223000D01*
X46127001Y-53477000D02*
X46127001Y-52630540D01*
D13*
X47143001Y-47300000D02*
G75*
G02*
X46381001Y-47300000I-381000J0D01*
G01*
X46381001Y-47300000D02*
G75*
G02*
X47143001Y-47300000I381000J0D01*
G01*
D12*
%TO.C,TP1*%
X59035500Y-22260500D02*
X59035500Y-25689500D01*
X59035500Y-25689500D02*
X62464500Y-25689500D01*
X62464500Y-22260500D02*
X59035500Y-22260500D01*
X62464500Y-25689500D02*
X62464500Y-22260500D01*
D13*
X64623500Y-23975000D02*
G75*
G02*
X63861500Y-23975000I-381000J0D01*
G01*
X63861500Y-23975000D02*
G75*
G02*
X64623500Y-23975000I381000J0D01*
G01*
D14*
%TO.C,C6*%
X55565000Y-39963748D02*
X55565000Y-40486252D01*
X57035000Y-39963748D02*
X57035000Y-40486252D01*
D12*
%TO.C,R6*%
X58499900Y-40162549D02*
X58499900Y-40538049D01*
X60100100Y-40538049D02*
X60100100Y-40162549D01*
%TO.C,JP4*%
X68464850Y-31804149D02*
X68464850Y-37163549D01*
X68464850Y-37163549D02*
X71512850Y-37163549D01*
X71512850Y-31804149D02*
X68464850Y-31804149D01*
X71512850Y-37163549D02*
X71512850Y-31804149D01*
D13*
X70369850Y-31169149D02*
G75*
G02*
X69607850Y-31169149I-381000J0D01*
G01*
X69607850Y-31169149D02*
G75*
G02*
X70369850Y-31169149I381000J0D01*
G01*
D12*
%TO.C,TP5*%
X60004350Y-31963150D02*
X60004350Y-35392150D01*
X60004350Y-35392150D02*
X63433350Y-35392150D01*
X63433350Y-31963150D02*
X60004350Y-31963150D01*
X63433350Y-35392150D02*
X63433350Y-31963150D01*
D14*
%TO.C,C5*%
X55565000Y-45161252D02*
X55565000Y-44638748D01*
X57035000Y-45161252D02*
X57035000Y-44638748D01*
D12*
%TO.C,TP2*%
X61585500Y-48474300D02*
X61585500Y-51903300D01*
X61585500Y-51903300D02*
X65014500Y-51903300D01*
X65014500Y-48474300D02*
X61585500Y-48474300D01*
X65014500Y-51903300D02*
X65014500Y-48474300D01*
D13*
X63681000Y-53681300D02*
G75*
G02*
X62919000Y-53681300I-381000J0D01*
G01*
X62919000Y-53681300D02*
G75*
G02*
X63681000Y-53681300I381000J0D01*
G01*
D12*
%TO.C,JP2*%
X69776000Y-47275300D02*
X69776000Y-52634700D01*
X69776000Y-52634700D02*
X72824000Y-52634700D01*
X72824000Y-47275300D02*
X69776000Y-47275300D01*
X72824000Y-52634700D02*
X72824000Y-47275300D01*
D13*
X71681000Y-53269700D02*
G75*
G02*
X70919000Y-53269700I-381000J0D01*
G01*
X70919000Y-53269700D02*
G75*
G02*
X71681000Y-53269700I381000J0D01*
G01*
D12*
%TO.C,JP3*%
X64464850Y-31804149D02*
X64464850Y-37163549D01*
X64464850Y-37163549D02*
X67512850Y-37163549D01*
X67512850Y-31804149D02*
X64464850Y-31804149D01*
X67512850Y-37163549D02*
X67512850Y-31804149D01*
%TO.C,TP3*%
X54235500Y-33463150D02*
X54235500Y-36892150D01*
X54235500Y-36892150D02*
X57664500Y-36892150D01*
X57664500Y-33463150D02*
X54235500Y-33463150D01*
X57664500Y-36892150D02*
X57664500Y-33463150D01*
D15*
%TO.C,Reg*%
X55063999Y-57280000D02*
X55063999Y-47119995D01*
X56333999Y-47119995D02*
X55063999Y-47119995D01*
X56333999Y-57280000D02*
X55063999Y-57280000D01*
X59636001Y-47119995D02*
X56333999Y-47119995D01*
X59636001Y-57280000D02*
X56333999Y-57280000D01*
X59636001Y-57280000D02*
X59636001Y-47119995D01*
D14*
%TO.C,C4*%
X38088748Y-40565000D02*
X38611252Y-40565000D01*
X38088748Y-42035000D02*
X38611252Y-42035000D01*
%TO.C,D1*%
X21689400Y-28360000D02*
X24374400Y-28360000D01*
X24374400Y-26440000D02*
X21689400Y-26440000D01*
X24374400Y-28360000D02*
X24374400Y-26440000D01*
%TO.C,ZED-F9P*%
X24840000Y-22290000D02*
X24840000Y-39510000D01*
X42750000Y-22290000D02*
X24840000Y-22290000D01*
X43450000Y-22290000D02*
X47060000Y-22290000D01*
X47060000Y-22290000D02*
X47060000Y-39510000D01*
X47060000Y-39510000D02*
X24840000Y-39510000D01*
X43100000Y-22290000D02*
X42860000Y-21960000D01*
X43340000Y-21960000D01*
X43100000Y-22290000D01*
G36*
X43100000Y-22290000D02*
G01*
X42860000Y-21960000D01*
X43340000Y-21960000D01*
X43100000Y-22290000D01*
G37*
D12*
%TO.C,R2*%
X58499900Y-44037250D02*
X58499900Y-44412750D01*
X60100100Y-44412750D02*
X60100100Y-44037250D01*
%TD*%
M02*
