M48
; DRILL file {KiCad 8.0.5} date 2025-05-01T09:18:41+0200
; FORMAT={-:-/ absolute / metric / decimal}
; #@! TF.CreationDate,2025-05-01T09:18:41+02:00
; #@! TF.GenerationSoftware,Kicad,Pcbnew,8.0.5
; #@! TF.FileFunction,Plated,1,2,PTH
FMAT,2
METRIC
; #@! TA.AperFunction,Plated,PTH,ViaDrill
T1C0.300
; #@! TA.AperFunction,Plated,PTH,ComponentDrill
T2C0.889
; #@! TA.AperFunction,Plated,PTH,ComponentDrill
T3C1.000
; #@! TA.AperFunction,Plated,PTH,ComponentDrill
T4C2.134
; #@! TA.AperFunction,Plated,PTH,ComponentDrill
T5C3.000
%
G90
G05
T1
X22.0Y-32.25
X22.05Y-34.9
X22.15Y-37.1
X23.1Y-29.95
X25.5Y-22.975
X25.7Y-39.075
X25.8Y-56.4
X25.8Y-57.825
X26.325Y-59.175
X26.879Y-22.996
X27.1Y-39.0
X27.525Y-60.375
X27.75Y-56.475
X27.75Y-57.9
X28.675Y-61.525
X28.85Y-59.1
X30.1Y-56.275
X30.1Y-57.7
X30.1Y-60.1
X30.1Y-61.9
X30.1Y-61.9
X31.45Y-51.8
X31.462Y-49.712
X31.7Y-58.4
X31.7Y-58.4
X31.7Y-60.1
X31.7Y-60.1
X31.7Y-61.9
X33.3Y-58.4
X33.3Y-60.1
X33.3Y-61.9
X34.2Y-41.5
X34.25Y-43.25
X34.85Y-40.25
X34.9Y-58.4
X34.9Y-60.1
X34.9Y-61.9
X35.25Y-43.25
X35.262Y-49.512
X35.288Y-51.962
X36.15Y-43.9
X36.45Y-40.25
X36.5Y-58.4
X36.5Y-60.1
X36.5Y-61.9
X37.15Y-43.9
X38.1Y-58.4
X38.1Y-60.1
X38.1Y-61.9
X38.15Y-43.9
X38.987Y-49.237
X39.0Y-52.25
X39.15Y-43.9
X39.2Y-42.15
X39.7Y-58.4
X39.7Y-60.1
X39.7Y-61.9
X39.725Y-56.575
X40.15Y-43.9
X40.2Y-42.15
X41.05Y-21.55
X41.1Y-44.45
X41.15Y-41.625
X41.3Y-58.4
X41.3Y-60.1
X41.3Y-61.9
X41.6Y-21.05
X42.1Y-20.55
X42.65Y-20.0
X42.9Y-58.4
X42.9Y-60.1
X42.9Y-61.9
X42.925Y-56.575
X43.175Y-19.5
X43.925Y-19.525
X43.975Y-41.625
X44.0Y-44.475
X44.05Y-54.75
X44.25Y-48.75
X44.462Y-52.787
X44.5Y-58.4
X44.5Y-60.1
X44.5Y-61.9
X44.525Y-56.575
X44.675Y-19.525
X44.675Y-22.0
X44.7Y-40.7
X44.8Y-47.7
X44.85Y-38.825
X44.9Y-22.975
X44.9Y-53.9
X45.2Y-43.1
X45.4Y-40.0
X45.425Y-19.525
X45.425Y-22.0
X45.9Y-42.35
X46.085Y-40.665
X46.1Y-47.7
X46.1Y-56.575
X46.1Y-58.4
X46.1Y-60.1
X46.1Y-61.9
X46.175Y-19.525
X46.175Y-22.0
X46.275Y-22.975
X46.325Y-38.85
X46.35Y-53.9
X46.65Y-41.6
X46.85Y-46.7
X46.925Y-19.525
X46.925Y-22.0
X47.35Y-40.8
X47.35Y-41.8
X47.35Y-42.8
X47.35Y-43.85
X47.35Y-44.8
X47.35Y-45.8
X47.675Y-19.525
X47.675Y-22.0
X47.7Y-56.575
X47.7Y-58.4
X47.7Y-60.1
X47.7Y-61.9
X47.721Y-53.75
X47.75Y-26.15
X47.85Y-27.55
X47.9Y-24.5
X47.9Y-28.85
X48.05Y-30.92
X48.25Y-40.0
X48.425Y-19.525
X48.425Y-22.0
X48.9Y-52.65
X49.0Y-26.15
X49.0Y-39.25
X49.175Y-19.525
X49.175Y-22.0
X49.3Y-28.9
X49.3Y-56.575
X49.3Y-58.4
X49.3Y-60.1
X49.3Y-61.9
X49.75Y-40.0
X49.8Y-24.45
X49.9Y-30.9
X49.925Y-19.525
X49.925Y-22.0
X50.0Y-51.65
X50.4Y-26.15
X50.5Y-39.25
X50.675Y-19.525
X50.675Y-22.0
X50.9Y-56.575
X50.9Y-58.4
X50.9Y-60.1
X50.9Y-61.9
X50.95Y-28.9
X50.95Y-50.75
X51.25Y-40.0
X51.425Y-19.525
X51.425Y-22.0
X51.6Y-30.94
X51.65Y-27.25
X51.75Y-24.9
X51.9Y-49.7
X52.0Y-39.25
X52.15Y-22.2
X52.175Y-19.525
X52.5Y-56.6
X52.5Y-58.4
X52.5Y-58.4
X52.5Y-60.1
X52.5Y-61.9
X52.55Y-28.45
X52.75Y-22.7
X52.75Y-40.0
X52.95Y-48.65
X53.0Y-19.65
X53.05Y-26.2
X53.35Y-23.3
X53.5Y-39.25
X53.55Y-20.25
X53.8Y-47.7
X53.9Y-23.85
X54.1Y-56.55
X54.1Y-58.375
X54.1Y-58.375
X54.1Y-60.075
X54.1Y-61.875
X54.15Y-20.75
X54.21Y-50.155
X54.25Y-38.566
X54.3Y-27.35
X54.4Y-51.785
X54.45Y-24.4
X54.525Y-36.6
X54.575Y-33.75
X54.622Y-28.944
X54.645Y-30.43
X54.65Y-32.05
X54.7Y-21.3
X55.0Y-24.9
X55.05Y-40.05
X55.2Y-42.55
X55.25Y-21.85
X55.5Y-25.45
X55.61Y-52.945
X55.7Y-56.55
X55.7Y-58.375
X55.7Y-58.375
X55.7Y-60.075
X55.7Y-61.875
X55.8Y-22.4
X56.05Y-26.0
X56.05Y-47.25
X56.27Y-49.805
X56.3Y-22.95
X56.6Y-26.55
X56.61Y-48.505
X56.79Y-50.945
X56.85Y-23.45
X57.3Y-56.55
X57.3Y-58.375
X57.3Y-58.375
X57.3Y-60.075
X57.3Y-61.875
X57.375Y-33.725
X57.375Y-36.6
X57.4Y-24.0
X57.6Y-46.8
X57.65Y-42.45
X57.825Y-30.55
X57.875Y-48.055
X57.95Y-24.55
X57.95Y-28.0
X58.15Y-38.6
X58.5Y-25.1
X58.5Y-28.55
X58.5Y-36.775
X58.85Y-46.25
X58.9Y-58.075
X58.9Y-60.075
X58.9Y-61.875
X58.975Y-31.775
X59.05Y-25.65
X59.2Y-48.45
X59.375Y-34.425
X59.4Y-33.025
X59.5Y-47.3
X59.5Y-52.725
X59.525Y-49.675
X59.6Y-26.2
X60.0Y-37.15
X60.2Y-46.25
X60.275Y-32.225
X60.275Y-35.125
X60.35Y-26.3
X60.35Y-28.7
X60.5Y-42.225
X60.5Y-56.475
X60.5Y-59.025
X60.5Y-61.875
X60.65Y-44.275
X60.725Y-36.45
X60.725Y-38.75
X60.75Y-40.375
X61.1Y-26.3
X61.122Y-46.847
X61.55Y-37.15
X61.85Y-26.3
X61.85Y-48.725
X61.87Y-51.575
X62.2Y-54.575
X62.2Y-57.375
X62.2Y-60.075
X62.6Y-26.3
X62.6Y-28.7
X63.125Y-37.475
X63.175Y-32.225
X63.175Y-35.125
X63.35Y-26.3
X63.35Y-28.7
X63.575Y-44.85
X63.64Y-40.345
X63.65Y-36.675
X63.69Y-42.175
X63.7Y-53.175
X63.8Y-55.775
X63.8Y-58.425
X63.822Y-46.147
X64.1Y-26.3
X64.1Y-28.7
X64.18Y-38.415
X64.57Y-41.295
X64.75Y-51.625
X64.8Y-48.725
X64.85Y-26.3
X64.85Y-28.7
X64.875Y-32.2
X64.875Y-34.475
X64.875Y-36.75
X64.95Y-46.5
X65.16Y-39.265
X65.225Y-44.85
X65.275Y-43.35
X65.35Y-54.225
X65.35Y-56.725
X65.6Y-26.3
X65.6Y-28.7
X65.6Y-28.7
X66.1Y-52.275
X66.2Y-47.725
X66.2Y-49.875
X66.35Y-26.3
X66.35Y-28.7
X66.415Y-42.7
X67.0Y-34.475
X67.05Y-32.175
X67.1Y-26.3
X67.1Y-28.7
X67.425Y-54.025
X67.425Y-55.875
X67.75Y-41.5
X67.8Y-43.15
X67.85Y-26.3
X67.85Y-28.7
X67.892Y-46.633
X68.35Y-49.875
X68.35Y-52.225
X68.56Y-38.105
X68.6Y-26.3
X68.6Y-28.7
X68.8Y-32.175
X68.8Y-34.475
X69.075Y-43.15
X69.1Y-41.5
X69.35Y-26.3
X69.35Y-28.7
X69.6Y-54.025
X69.6Y-55.875
X70.1Y-26.3
X70.1Y-28.7
X70.2Y-49.875
X70.275Y-41.5
X70.85Y-26.3
X70.85Y-28.7
X70.9Y-37.925
X71.05Y-34.475
X71.1Y-36.775
X71.125Y-32.225
X71.375Y-53.3
X71.6Y-26.3
X71.6Y-28.7
X71.7Y-55.875
X72.34Y-34.555
X72.35Y-26.3
X72.35Y-28.7
X72.45Y-32.25
X72.65Y-36.075
X72.65Y-38.375
X72.65Y-40.675
X72.65Y-42.975
X72.65Y-45.275
X72.65Y-47.625
X72.65Y-49.875
X72.65Y-49.875
X72.65Y-52.175
X72.65Y-52.175
X73.1Y-26.3
X73.1Y-28.7
X73.225Y-54.45
X73.725Y-33.075
X73.85Y-26.3
X73.85Y-26.3
X73.85Y-28.7
X73.85Y-28.7
X74.225Y-53.475
X74.6Y-26.3
X74.6Y-28.7
X74.7Y-34.5
X74.7Y-36.075
X74.7Y-38.375
X74.7Y-40.675
X74.7Y-42.975
X74.7Y-45.275
X74.7Y-47.575
X74.7Y-49.875
X74.7Y-52.175
X75.35Y-26.3
X75.35Y-28.7
X75.59Y-24.7
X75.59Y-30.24
X76.1Y-26.3
X76.1Y-28.7
X76.34Y-24.7
X76.34Y-30.24
X76.85Y-26.3
X76.85Y-28.7
X77.09Y-24.7
X77.09Y-30.24
X77.6Y-26.3
X77.6Y-28.7
X77.84Y-24.7
X77.84Y-30.24
X78.35Y-26.3
X78.35Y-28.7
X78.59Y-24.7
X78.59Y-30.24
X79.34Y-24.7
X79.34Y-30.24
T2
X65.989Y-33.214
X65.989Y-35.754
X67.3Y-48.685
X67.3Y-51.225
X69.989Y-33.214
X69.989Y-35.754
X71.3Y-48.685
X71.3Y-51.225
T3
X57.95Y-49.66
X57.95Y-52.2
X57.95Y-54.74
T4
X42.55Y-43.05
X55.95Y-35.178
X61.719Y-33.678
X63.3Y-50.189
T5
X22.55Y-20.9
X22.65Y-61.35
X70.2Y-21.0
X77.4Y-61.4
M30
