M48
; DRILL file {KiCad 8.0.4} date 2025-05-04T18:40:52+0200
; FORMAT={-:-/ absolute / inch / decimal}
; #@! TF.CreationDate,2025-05-04T18:40:52+02:00
; #@! TF.GenerationSoftware,Kicad,Pcbnew,8.0.4
; #@! TF.FileFunction,Plated,1,2,PTH
FMAT,2
INCH
; #@! TA.AperFunction,Plated,PTH,ViaDrill
T1C0.0118
; #@! TA.AperFunction,Plated,PTH,ComponentDrill
T2C0.0350
; #@! TA.AperFunction,Plated,PTH,ComponentDrill
T3C0.0394
; #@! TA.AperFunction,Plated,PTH,ComponentDrill
T4C0.0840
; #@! TA.AperFunction,Plated,PTH,ComponentDrill
T5C0.1181
%
G90
G05
T1
X0.8661Y-1.2697
X0.8681Y-1.374
X0.872Y-1.4606
X0.9094Y-1.1791
X1.0039Y-0.9045
X1.0118Y-1.5384
X1.0157Y-2.2205
X1.0157Y-2.2766
X1.0364Y-2.3297
X1.0582Y-0.9053
X1.0669Y-1.5354
X1.0837Y-2.377
X1.0925Y-2.2234
X1.0925Y-2.2795
X1.1289Y-2.4222
X1.1358Y-2.3268
X1.185Y-2.2156
X1.185Y-2.2717
X1.185Y-2.3661
X1.185Y-2.437
X1.185Y-2.437
X1.2382Y-2.0394
X1.2387Y-1.9572
X1.248Y-2.2992
X1.248Y-2.2992
X1.248Y-2.3661
X1.248Y-2.3661
X1.248Y-2.437
X1.311Y-2.2992
X1.311Y-2.3661
X1.311Y-2.437
X1.3465Y-1.6339
X1.3484Y-1.7028
X1.372Y-1.5846
X1.374Y-2.2992
X1.374Y-2.3661
X1.374Y-2.437
X1.3878Y-1.7028
X1.3883Y-1.9493
X1.3893Y-2.0458
X1.4232Y-1.7283
X1.435Y-1.5846
X1.437Y-2.2992
X1.437Y-2.3661
X1.437Y-2.437
X1.4626Y-1.7283
X1.5Y-2.2992
X1.5Y-2.3661
X1.5Y-2.437
X1.502Y-1.7283
X1.5349Y-1.9385
X1.5354Y-2.0571
X1.5413Y-1.7283
X1.5433Y-1.6594
X1.563Y-2.2992
X1.563Y-2.3661
X1.563Y-2.437
X1.564Y-2.2274
X1.5807Y-1.7283
X1.5827Y-1.6594
X1.6161Y-0.8484
X1.6181Y-1.75
X1.6201Y-1.6388
X1.626Y-2.2992
X1.626Y-2.3661
X1.626Y-2.437
X1.6378Y-0.8287
X1.6575Y-0.8091
X1.6791Y-0.7874
X1.689Y-2.2992
X1.689Y-2.3661
X1.689Y-2.437
X1.69Y-2.2274
X1.6998Y-0.7677
X1.7293Y-0.7687
X1.7313Y-1.6388
X1.7323Y-1.751
X1.7343Y-2.1555
X1.7421Y-1.9193
X1.7505Y-2.0782
X1.752Y-2.2992
X1.752Y-2.3661
X1.752Y-2.437
X1.753Y-2.2274
X1.7589Y-0.7687
X1.7589Y-0.8661
X1.7598Y-1.6024
X1.7638Y-1.878
X1.7657Y-1.5285
X1.7677Y-0.9045
X1.7677Y-2.122
X1.7795Y-1.6969
X1.7874Y-1.5748
X1.7884Y-0.7687
X1.7884Y-0.8661
X1.8071Y-1.6673
X1.8144Y-1.601
X1.815Y-1.878
X1.815Y-2.2274
X1.815Y-2.2992
X1.815Y-2.3661
X1.815Y-2.437
X1.8179Y-0.7687
X1.8179Y-0.8661
X1.8219Y-0.9045
X1.8238Y-1.5295
X1.8248Y-2.122
X1.8366Y-1.6378
X1.8445Y-1.8386
X1.8474Y-0.7687
X1.8474Y-0.8661
X1.8642Y-1.6063
X1.8642Y-1.6457
X1.8642Y-1.685
X1.8642Y-1.7264
X1.8642Y-1.7638
X1.8642Y-1.8031
X1.877Y-0.7687
X1.877Y-0.8661
X1.878Y-2.2274
X1.878Y-2.2992
X1.878Y-2.3661
X1.878Y-2.437
X1.8788Y-2.1161
X1.8799Y-1.0295
X1.8839Y-1.0846
X1.8858Y-0.9646
X1.8858Y-1.1358
X1.8917Y-1.2173
X1.8996Y-1.5748
X1.9065Y-0.7687
X1.9065Y-0.8661
X1.9252Y-2.0728
X1.9291Y-1.0295
X1.9291Y-1.5453
X1.936Y-0.7687
X1.936Y-0.8661
X1.9409Y-1.1378
X1.9409Y-2.2274
X1.9409Y-2.2992
X1.9409Y-2.3661
X1.9409Y-2.437
X1.9587Y-1.5748
X1.9606Y-0.9626
X1.9646Y-1.2165
X1.9656Y-0.7687
X1.9656Y-0.8661
X1.9685Y-2.0335
X1.9843Y-1.0295
X1.9882Y-1.5453
X1.9951Y-0.7687
X1.9951Y-0.8661
X2.0039Y-2.2274
X2.0039Y-2.2992
X2.0039Y-2.3661
X2.0039Y-2.437
X2.0059Y-1.1378
X2.0059Y-1.998
X2.0177Y-1.5748
X2.0246Y-0.7687
X2.0246Y-0.8661
X2.0315Y-1.2181
X2.0335Y-1.0728
X2.0374Y-0.9803
X2.0433Y-1.9567
X2.0472Y-1.5453
X2.0531Y-0.874
X2.0541Y-0.7687
X2.0669Y-2.2283
X2.0669Y-2.2992
X2.0669Y-2.2992
X2.0669Y-2.3661
X2.0669Y-2.437
X2.0689Y-1.1201
X2.0768Y-0.8937
X2.0768Y-1.5748
X2.0846Y-1.9154
X2.0866Y-0.7736
X2.0886Y-1.0315
X2.1004Y-0.9173
X2.1063Y-1.5453
X2.1083Y-0.7972
X2.1181Y-1.878
X2.122Y-0.939
X2.1299Y-2.2264
X2.1299Y-2.2982
X2.1299Y-2.2982
X2.1299Y-2.3652
X2.1299Y-2.436
X2.1319Y-0.8169
X2.1343Y-1.9746
X2.1358Y-1.5184
X2.1378Y-1.0768
X2.1417Y-2.0388
X2.1437Y-0.9606
X2.1467Y-1.4409
X2.1486Y-1.3287
X2.1505Y-1.1395
X2.1514Y-1.198
X2.1516Y-1.2618
X2.1535Y-0.8386
X2.1654Y-0.9803
X2.1673Y-1.5768
X2.1732Y-1.6752
X2.1752Y-0.8602
X2.185Y-1.002
X2.1894Y-2.0844
X2.1929Y-2.2264
X2.1929Y-2.2982
X2.1929Y-2.2982
X2.1929Y-2.3652
X2.1929Y-2.436
X2.1969Y-0.8819
X2.2067Y-1.0236
X2.2067Y-1.8602
X2.2154Y-1.9608
X2.2165Y-0.9035
X2.2283Y-1.0453
X2.2287Y-1.9096
X2.2358Y-2.0057
X2.2382Y-0.9232
X2.2559Y-2.2264
X2.2559Y-2.2982
X2.2559Y-2.2982
X2.2559Y-2.3652
X2.2559Y-2.436
X2.2589Y-1.3278
X2.2589Y-1.4409
X2.2598Y-0.9449
X2.2677Y-1.8425
X2.2697Y-1.6713
X2.2766Y-1.2028
X2.2785Y-1.8919
X2.2815Y-0.9665
X2.2815Y-1.1024
X2.2894Y-1.5197
X2.3031Y-0.9882
X2.3031Y-1.124
X2.3031Y-1.4478
X2.3169Y-1.8209
X2.3189Y-2.2864
X2.3189Y-2.3652
X2.3189Y-2.436
X2.3219Y-1.251
X2.3248Y-1.0098
X2.3307Y-1.9075
X2.3376Y-1.3553
X2.3386Y-1.3002
X2.3425Y-1.8622
X2.3425Y-2.0758
X2.3435Y-1.9557
X2.3465Y-1.0315
X2.3622Y-1.4626
X2.3701Y-1.8209
X2.373Y-1.2687
X2.373Y-1.3829
X2.376Y-1.0354
X2.376Y-1.1299
X2.3819Y-1.6624
X2.3819Y-2.2234
X2.3819Y-2.3238
X2.3819Y-2.436
X2.3878Y-1.7431
X2.3907Y-1.435
X2.3907Y-1.5256
X2.3917Y-1.5896
X2.4055Y-1.0354
X2.4064Y-1.8444
X2.4232Y-1.4626
X2.435Y-1.0354
X2.435Y-1.9183
X2.4358Y-2.0305
X2.4488Y-2.1486
X2.4488Y-2.2589
X2.4488Y-2.3652
X2.4646Y-1.0354
X2.4646Y-1.1299
X2.4852Y-1.4754
X2.4872Y-1.2687
X2.4872Y-1.3829
X2.4941Y-1.0354
X2.4941Y-1.1299
X2.503Y-1.7657
X2.5055Y-1.5884
X2.5059Y-1.4439
X2.5075Y-1.6604
X2.5079Y-2.0935
X2.5118Y-2.1959
X2.5118Y-2.3002
X2.5127Y-1.8168
X2.5236Y-1.0354
X2.5236Y-1.1299
X2.5268Y-1.5124
X2.5421Y-1.6258
X2.5492Y-2.0325
X2.5512Y-1.9183
X2.5531Y-1.0354
X2.5531Y-1.1299
X2.5541Y-1.2677
X2.5541Y-1.3573
X2.5541Y-1.4469
X2.5571Y-1.8307
X2.5654Y-1.5459
X2.5679Y-1.7657
X2.5699Y-1.7067
X2.5728Y-2.1348
X2.5728Y-2.2333
X2.5827Y-1.0354
X2.5827Y-1.1299
X2.5827Y-1.1299
X2.6024Y-2.0581
X2.6063Y-1.8789
X2.6063Y-1.9636
X2.6122Y-1.0354
X2.6122Y-1.1299
X2.6148Y-1.6811
X2.6378Y-1.3573
X2.6398Y-1.2667
X2.6417Y-1.0354
X2.6417Y-1.1299
X2.6545Y-2.127
X2.6545Y-2.1998
X2.6673Y-1.6339
X2.6693Y-1.6988
X2.6713Y-1.0354
X2.6713Y-1.1299
X2.6729Y-1.8359
X2.6909Y-1.9636
X2.6909Y-2.0561
X2.6992Y-1.5002
X2.7008Y-1.0354
X2.7008Y-1.1299
X2.7087Y-1.2667
X2.7087Y-1.3573
X2.7195Y-1.6988
X2.7205Y-1.6339
X2.7303Y-1.0354
X2.7303Y-1.1299
X2.7402Y-2.127
X2.7402Y-2.1998
X2.7598Y-1.0354
X2.7598Y-1.1299
X2.7638Y-1.9636
X2.7667Y-1.6339
X2.7894Y-1.0354
X2.7894Y-1.1299
X2.7913Y-1.4931
X2.7972Y-1.3573
X2.7992Y-1.4478
X2.8002Y-1.2687
X2.81Y-2.0984
X2.8189Y-1.0354
X2.8189Y-1.1299
X2.8228Y-2.1998
X2.848Y-1.3604
X2.8484Y-1.0354
X2.8484Y-1.1299
X2.8524Y-1.2697
X2.8602Y-1.4203
X2.8602Y-1.5108
X2.8602Y-1.6014
X2.8602Y-1.6919
X2.8602Y-1.7825
X2.8602Y-1.875
X2.8602Y-1.9636
X2.8602Y-1.9636
X2.8602Y-2.0541
X2.8602Y-2.0541
X2.878Y-1.0354
X2.878Y-1.1299
X2.8829Y-2.1437
X2.9026Y-1.3022
X2.9075Y-1.0354
X2.9075Y-1.0354
X2.9075Y-1.1299
X2.9075Y-1.1299
X2.9222Y-2.1053
X2.937Y-1.0354
X2.937Y-1.1299
X2.9409Y-1.3583
X2.9409Y-1.4203
X2.9409Y-1.5108
X2.9409Y-1.6014
X2.9409Y-1.6919
X2.9409Y-1.7825
X2.9409Y-1.873
X2.9409Y-1.9636
X2.9409Y-2.0541
X2.9665Y-1.0354
X2.9665Y-1.1299
X2.976Y-0.9724
X2.976Y-1.1906
X2.9961Y-1.0354
X2.9961Y-1.1299
X3.0055Y-0.9724
X3.0055Y-1.1906
X3.0256Y-1.0354
X3.0256Y-1.1299
X3.035Y-0.9724
X3.035Y-1.1906
X3.0551Y-1.0354
X3.0551Y-1.1299
X3.0646Y-0.9724
X3.0646Y-1.1906
X3.0846Y-1.0354
X3.0846Y-1.1299
X3.0941Y-0.9724
X3.0941Y-1.1906
X3.1236Y-0.9724
X3.1236Y-1.1906
T2
X2.598Y-1.3076
X2.598Y-1.4076
X2.6496Y-1.9167
X2.6496Y-2.0167
X2.7555Y-1.3076
X2.7555Y-1.4076
X2.8071Y-1.9167
X2.8071Y-2.0167
T3
X2.2815Y-1.9551
X2.2815Y-2.0551
X2.2815Y-2.1551
T4
X1.6752Y-1.6949
X2.2028Y-1.3849
X2.4299Y-1.3259
X2.4921Y-1.9759
T5
X0.8878Y-0.8228
X0.8917Y-2.4154
X2.7638Y-0.8268
X3.0472Y-2.4173
M30
