%TF.GenerationSoftware,KiCad,Pcbnew,8.0.5*%
%TF.CreationDate,2025-04-22T16:50:40+02:00*%
%TF.ProjectId,ZED_F9P_minimal,5a45445f-4639-4505-9f6d-696e696d616c,rev?*%
%TF.SameCoordinates,Original*%
%TF.FileFunction,Copper,L2,Bot*%
%TF.FilePolarity,Positive*%
%FSLAX46Y46*%
G04 Gerber Fmt 4.6, Leading zero omitted, Abs format (unit mm)*
G04 Created by KiCad (PCBNEW 8.0.5) date 2025-04-22 16:50:40*
%MOMM*%
%LPD*%
G01*
G04 APERTURE LIST*
%TA.AperFunction,ComponentPad*%
%ADD10C,2.641600*%
%TD*%
%TA.AperFunction,ComponentPad*%
%ADD11C,1.397000*%
%TD*%
%TA.AperFunction,SMDPad,CuDef*%
%ADD12R,4.560000X1.000000*%
%TD*%
%TA.AperFunction,ComponentPad*%
%ADD13C,3.500000*%
%TD*%
%TA.AperFunction,ComponentPad*%
%ADD14R,1.599999X1.599999*%
%TD*%
%TA.AperFunction,ComponentPad*%
%ADD15C,1.599999*%
%TD*%
%TA.AperFunction,ViaPad*%
%ADD16C,0.600000*%
%TD*%
%TA.AperFunction,ViaPad*%
%ADD17C,0.400000*%
%TD*%
%TA.AperFunction,Conductor*%
%ADD18C,0.400000*%
%TD*%
%TA.AperFunction,Conductor*%
%ADD19C,0.200000*%
%TD*%
G04 APERTURE END LIST*
D10*
%TO.P,TP4,1,1*%
%TO.N,/3v3_puce*%
X42550000Y-43050000D03*
%TD*%
D11*
%TO.P,JP1,1,A*%
%TO.N,/3V3-IN*%
X67300000Y-51225000D03*
%TO.P,JP1,2,B*%
%TO.N,/jumper_3V_out*%
X67300000Y-48685000D03*
%TD*%
D12*
%TO.P,SMA1,SH3*%
%TO.N,GND*%
X77450000Y-24685000D03*
%TO.P,SMA1,SH4*%
X77450000Y-30225000D03*
%TD*%
D13*
%TO.P,REF,*%
%TO.N,*%
X77400000Y-61400000D03*
%TD*%
D11*
%TO.P,JP4,1,A*%
%TO.N,/5V-jumper*%
X69988850Y-33213849D03*
%TO.P,JP4,2,B*%
%TO.N,/jumper_5V_out*%
X69988850Y-35753849D03*
%TD*%
D10*
%TO.P,TP5,1,1*%
%TO.N,/5V-IN*%
X61718850Y-33677650D03*
%TD*%
D13*
%TO.P,REF,*%
%TO.N,*%
X22550000Y-20900000D03*
%TD*%
%TO.P,REF,*%
%TO.N,*%
X22650000Y-61350000D03*
%TD*%
D10*
%TO.P,TP2,1,1*%
%TO.N,/3V3-IN*%
X63300000Y-50188800D03*
%TD*%
D11*
%TO.P,JP2,1,A*%
%TO.N,/3V3-jumper*%
X71300000Y-51225000D03*
%TO.P,JP2,2,B*%
%TO.N,/jumper_3V_out*%
X71300000Y-48685000D03*
%TD*%
%TO.P,JP3,1,A*%
%TO.N,/5V-IN*%
X65988850Y-33213849D03*
%TO.P,JP3,2,B*%
%TO.N,/jumper_5V_out*%
X65988850Y-35753849D03*
%TD*%
D10*
%TO.P,TP3,1,1*%
%TO.N,/5v_antenne*%
X55950000Y-35177650D03*
%TD*%
D14*
%TO.P,LM1086IT-ADJ_NOPB1,1,GND*%
%TO.N,GND*%
X57950000Y-54740000D03*
D15*
%TO.P,LM1086IT-ADJ_NOPB1,2,OUTPUT*%
%TO.N,/pt div*%
X57950000Y-52200000D03*
%TO.P,LM1086IT-ADJ_NOPB1,3,INPUT*%
%TO.N,/12V*%
X57950000Y-49660000D03*
%TD*%
D13*
%TO.P,REF,*%
%TO.N,*%
X70200000Y-21000000D03*
%TD*%
D16*
%TO.N,GND*%
X65600000Y-28500000D03*
X64850000Y-28500000D03*
X63350000Y-28500000D03*
X64100000Y-28500000D03*
%TO.N,/3v3_puce*%
X46085000Y-40665000D03*
X66415000Y-42700000D03*
%TO.N,GND*%
X59500000Y-47300000D03*
X74700000Y-40675000D03*
X39725000Y-56575000D03*
X49300000Y-61900000D03*
X77600000Y-28500000D03*
X60500000Y-42225000D03*
X72350000Y-26450000D03*
X50900000Y-56575000D03*
X52500000Y-60100000D03*
X44800000Y-47700000D03*
X57300000Y-58375000D03*
X60000000Y-37150000D03*
X42925000Y-56575000D03*
X53900000Y-23600000D03*
D17*
X79000000Y-29975000D03*
D16*
X45900000Y-42350000D03*
X31700000Y-60100000D03*
X42100000Y-20900000D03*
X54400000Y-51785000D03*
X54100000Y-58375000D03*
X67892198Y-46632961D03*
X41600000Y-21400000D03*
X60500000Y-59025000D03*
X54650000Y-32050000D03*
X42900000Y-60100000D03*
X66100000Y-52275000D03*
X55700000Y-58375000D03*
X68600000Y-26450000D03*
X49300000Y-60100000D03*
X23100000Y-29950000D03*
X44525000Y-56575000D03*
X43925000Y-21775000D03*
X41300000Y-58400000D03*
X72650000Y-45275000D03*
X57375000Y-36600000D03*
X30100000Y-57700000D03*
D17*
X77000000Y-30475000D03*
D16*
X47350000Y-41800000D03*
X43925000Y-19775000D03*
X34900000Y-60100000D03*
X52500000Y-58400000D03*
X50400000Y-26150000D03*
X54100000Y-56550000D03*
X46925000Y-19775000D03*
X61550000Y-37150000D03*
X58850000Y-46250000D03*
X56050000Y-47250000D03*
X48425000Y-19775000D03*
X44675000Y-21775000D03*
X46925000Y-21775000D03*
X76100000Y-28500000D03*
X47721324Y-53750000D03*
X31700000Y-60100000D03*
X64100000Y-26450000D03*
X74700000Y-36075000D03*
X58900000Y-58075000D03*
D17*
X77000000Y-29975000D03*
D16*
X67800000Y-43150000D03*
X57875000Y-48055000D03*
X57400000Y-24150000D03*
X53800000Y-47700000D03*
D17*
X77500000Y-24925000D03*
D16*
X44500000Y-61900000D03*
X73850000Y-28500000D03*
X72650000Y-40675000D03*
X25800000Y-56400000D03*
X27750000Y-56475000D03*
X62200000Y-57375000D03*
X51425000Y-19775000D03*
X63800000Y-58425000D03*
X56270000Y-49805000D03*
X57375000Y-33725000D03*
X54150000Y-20900000D03*
X46175000Y-19775000D03*
X52550000Y-28450000D03*
X44700000Y-40700000D03*
X26325000Y-59175000D03*
X58900000Y-61875000D03*
X57300000Y-60075000D03*
X36500000Y-60100000D03*
X73725000Y-33075000D03*
X68350000Y-52225000D03*
D17*
X75500000Y-24925000D03*
D16*
X30100000Y-56275000D03*
X56610000Y-48505000D03*
X74225000Y-53475000D03*
X22000000Y-32250000D03*
X52175000Y-19775000D03*
X64875000Y-32200000D03*
X71600000Y-26450000D03*
X55610000Y-52945000D03*
X55500000Y-25200000D03*
D17*
X76500000Y-24925000D03*
D16*
X63125000Y-37475000D03*
D17*
X77500000Y-24425000D03*
D16*
X65600000Y-26450000D03*
D17*
X78500000Y-30475000D03*
D16*
X45425000Y-19775000D03*
X25800000Y-57825000D03*
X47350000Y-42800000D03*
D17*
X76500000Y-24425000D03*
D16*
X66200000Y-49875000D03*
X47350000Y-43850000D03*
X54700000Y-21450000D03*
X54525000Y-36600000D03*
X72350000Y-28500000D03*
X54100000Y-58375000D03*
D17*
X78500000Y-29975000D03*
D16*
X62200000Y-60075000D03*
X44900000Y-53900000D03*
X72650000Y-47625000D03*
X46100000Y-56575000D03*
X74700000Y-42975000D03*
X58500000Y-25250000D03*
X61100000Y-26450000D03*
X60350000Y-26450000D03*
X60725000Y-38750000D03*
D17*
X75500000Y-29975000D03*
D16*
X53000000Y-19800000D03*
X73225000Y-54450000D03*
X39200000Y-42150000D03*
X42900000Y-58400000D03*
X61850000Y-26450000D03*
X46275000Y-22975000D03*
X55800000Y-22550000D03*
X69600000Y-54025000D03*
X65350000Y-54225000D03*
X41050000Y-21800000D03*
X67100000Y-26450000D03*
D17*
X78500000Y-24425000D03*
D16*
X45200000Y-43100000D03*
X71375000Y-53300000D03*
X74700000Y-49875000D03*
X59500000Y-52725000D03*
X67750000Y-41500000D03*
X59600000Y-26350000D03*
X40200000Y-42150000D03*
X72650000Y-52175000D03*
X55700000Y-60075000D03*
X42650000Y-20400000D03*
X31700000Y-58400000D03*
X55700000Y-56550000D03*
X44675000Y-19775000D03*
X43975000Y-41625000D03*
X56600000Y-26300000D03*
X51600000Y-30940000D03*
D17*
X77000000Y-24425000D03*
D16*
X70850000Y-26450000D03*
X50900000Y-61900000D03*
X55050000Y-40050000D03*
X59525000Y-49675000D03*
D17*
X77500000Y-30475000D03*
D16*
X72650000Y-49875000D03*
X64850000Y-26450000D03*
X30100000Y-61900000D03*
X28675000Y-61525000D03*
X64750000Y-51625000D03*
X40150000Y-43900000D03*
D17*
X76000000Y-29975000D03*
D16*
X46100000Y-61900000D03*
X27100000Y-39000000D03*
X34200000Y-41500000D03*
X73100000Y-26450000D03*
X78350000Y-28500000D03*
X47900000Y-28850000D03*
X70200000Y-49875000D03*
X43175000Y-19850000D03*
X47675000Y-21775000D03*
X27525000Y-60375000D03*
X51425000Y-21775000D03*
X73850000Y-26450000D03*
X56300000Y-23100000D03*
X71050000Y-34475000D03*
X69100000Y-41500000D03*
X38100000Y-60100000D03*
X63175000Y-35125000D03*
X73100000Y-28500000D03*
X49300000Y-28900000D03*
X34900000Y-61900000D03*
X54575000Y-33750000D03*
X70275000Y-41500000D03*
X22050000Y-34900000D03*
X74700000Y-47575000D03*
X60275000Y-32225000D03*
X47350000Y-40800000D03*
X54622429Y-28943753D03*
X41300000Y-60100000D03*
X49000000Y-26150000D03*
X56850000Y-23600000D03*
X55000000Y-24650000D03*
D17*
X75500000Y-24425000D03*
D16*
X71125000Y-32225000D03*
X26878964Y-22995703D03*
X60500000Y-61875000D03*
X49900000Y-30900000D03*
X36500000Y-58400000D03*
X46175000Y-21775000D03*
X72650000Y-38375000D03*
X52500000Y-58400000D03*
X33300000Y-58400000D03*
X55700000Y-58375000D03*
D17*
X76000000Y-30475000D03*
D16*
X52500000Y-56600000D03*
X65225000Y-44850000D03*
X45400000Y-40000000D03*
X48050000Y-30920000D03*
D17*
X78000000Y-29975000D03*
D16*
X71600000Y-28500000D03*
X33300000Y-60100000D03*
X61850000Y-48725000D03*
X46350000Y-53900000D03*
X63800000Y-55775000D03*
X67050000Y-32175000D03*
X53050000Y-26200000D03*
X70100000Y-28500000D03*
D17*
X79000000Y-24925000D03*
D16*
X54100000Y-61875000D03*
X39700000Y-60100000D03*
X50900000Y-60100000D03*
X41150000Y-41625000D03*
X46850000Y-46700000D03*
X73850000Y-26450000D03*
D17*
X79000000Y-24425000D03*
D16*
X71700000Y-55875000D03*
X54300000Y-27350000D03*
X49175000Y-21775000D03*
D17*
X79500000Y-29975000D03*
D16*
X74700000Y-45275000D03*
X25700000Y-39075000D03*
X47700000Y-58400000D03*
X70850000Y-28500000D03*
X57600000Y-46800000D03*
X51650000Y-27250000D03*
X31700000Y-58400000D03*
X57300000Y-58375000D03*
X64800000Y-48725000D03*
X55200000Y-42550000D03*
X67850000Y-26450000D03*
X52500000Y-61900000D03*
X68600000Y-28500000D03*
X35250000Y-43250000D03*
X68350000Y-49875000D03*
X64875000Y-36750000D03*
X75350000Y-26450000D03*
X46325000Y-38850000D03*
X57950000Y-24700000D03*
X30100000Y-61900000D03*
X67000000Y-34475000D03*
X31700000Y-61900000D03*
D17*
X76500000Y-30475000D03*
X76000000Y-24925000D03*
D16*
X69075000Y-43150000D03*
X63700000Y-53175000D03*
X46650000Y-41600000D03*
X41300000Y-61900000D03*
X65160000Y-39265000D03*
X41100000Y-44450000D03*
D17*
X78500000Y-24925000D03*
D16*
X75350000Y-28500000D03*
X63350000Y-26450000D03*
X48900000Y-52650000D03*
X37150000Y-43900000D03*
X36500000Y-61900000D03*
X36450000Y-40250000D03*
D17*
X75500000Y-30475000D03*
D16*
X52950000Y-48650000D03*
X47350000Y-44800000D03*
X56050000Y-25750000D03*
X50675000Y-21775000D03*
D17*
X78000000Y-24925000D03*
D16*
X78350000Y-26450000D03*
X70100000Y-26450000D03*
X42900000Y-61900000D03*
X60275000Y-35125000D03*
X44000000Y-44475000D03*
X56790000Y-50945000D03*
X60500000Y-56475000D03*
X36150000Y-43900000D03*
X74700000Y-34500000D03*
X74600000Y-26450000D03*
X46100000Y-60100000D03*
X54450000Y-24150000D03*
X65275000Y-43350000D03*
D17*
X78500000Y-29975000D03*
D16*
X47900000Y-24500000D03*
X59050000Y-25800000D03*
X60200000Y-46250000D03*
D17*
X76000000Y-24425000D03*
D16*
X67850000Y-28500000D03*
X28850000Y-59100000D03*
X45425000Y-21775000D03*
D17*
X77000000Y-24925000D03*
D16*
X48425000Y-21775000D03*
X64570000Y-41295000D03*
X66350000Y-28500000D03*
X64180000Y-38415000D03*
X49300000Y-58400000D03*
X51750000Y-24900000D03*
X47700000Y-56575000D03*
X30100000Y-60100000D03*
X69350000Y-28500000D03*
X50675000Y-19775000D03*
X44050000Y-54750000D03*
X72650000Y-42975000D03*
X58500000Y-36775000D03*
X49925000Y-19775000D03*
D17*
X79500000Y-24925000D03*
D16*
X62600000Y-26450000D03*
X34250000Y-43250000D03*
X65600000Y-28500000D03*
X76850000Y-28500000D03*
X49300000Y-56575000D03*
X47750000Y-26150000D03*
X49925000Y-21775000D03*
X47350000Y-45800000D03*
X69600000Y-55875000D03*
X39700000Y-58400000D03*
X67425000Y-55875000D03*
X58900000Y-60075000D03*
X60750000Y-40375000D03*
X68800000Y-32175000D03*
X63690000Y-42175000D03*
X69350000Y-26450000D03*
X47700000Y-61900000D03*
X47675000Y-19775000D03*
X54210000Y-50155000D03*
X65350000Y-56725000D03*
D17*
X78000000Y-24425000D03*
X77500000Y-29975000D03*
D16*
X44500000Y-60100000D03*
X33300000Y-61900000D03*
X64875000Y-34475000D03*
X57650000Y-42450000D03*
X54644614Y-30430194D03*
X68560000Y-38105000D03*
X57300000Y-61875000D03*
X34850000Y-40250000D03*
X74700000Y-38375000D03*
X54250000Y-38566500D03*
X53550000Y-20400000D03*
X76850000Y-26450000D03*
X22150000Y-37100000D03*
X66200000Y-47725000D03*
X27750000Y-57900000D03*
X39150000Y-43900000D03*
X71100000Y-36775000D03*
X59200000Y-48450000D03*
X72450000Y-32250000D03*
X44900000Y-22975000D03*
X51900000Y-49700000D03*
X77600000Y-26450000D03*
X55700000Y-61875000D03*
D17*
X76500000Y-29975000D03*
X78500000Y-30475000D03*
D16*
X53350000Y-23050000D03*
X38100000Y-61900000D03*
X55250000Y-22000000D03*
X46100000Y-58400000D03*
X50900000Y-58400000D03*
X74700000Y-52175000D03*
X67100000Y-28500000D03*
X50950000Y-28900000D03*
X47850000Y-27550000D03*
X54100000Y-60075000D03*
X73850000Y-28500000D03*
X25500000Y-22975000D03*
X38150000Y-43900000D03*
X60650000Y-44275000D03*
X67425000Y-54025000D03*
D17*
X79500000Y-30475000D03*
D16*
X63640000Y-40345000D03*
X44850000Y-38825000D03*
X61870000Y-51575000D03*
X76100000Y-26450000D03*
X58150000Y-38600000D03*
X52750000Y-22450000D03*
X62200000Y-54575000D03*
X66350000Y-26450000D03*
X50950000Y-50750000D03*
X63175000Y-32225000D03*
X72650000Y-49875000D03*
X34900000Y-58400000D03*
X63575000Y-44850000D03*
X70900000Y-37925000D03*
X39700000Y-61900000D03*
X50000000Y-51650000D03*
X52150000Y-21950000D03*
X49175000Y-19775000D03*
D17*
X79500000Y-24425000D03*
D16*
X44500000Y-58400000D03*
X47700000Y-60100000D03*
X38100000Y-58400000D03*
X57300000Y-56550000D03*
D17*
X79000000Y-30475000D03*
D16*
X49800000Y-24450000D03*
X68800000Y-34475000D03*
X74600000Y-28500000D03*
X72650000Y-36075000D03*
D17*
X78000000Y-30475000D03*
D16*
X64950000Y-46500000D03*
X72340000Y-34555000D03*
X46100000Y-47700000D03*
X72650000Y-52175000D03*
%TO.N,/I{slash}O *%
X35262500Y-49512500D03*
X49750000Y-40000000D03*
%TO.N,/UART_RX*%
X38987500Y-49237500D03*
X49000000Y-39250000D03*
%TO.N,/I{slash}O_CLK_SELECT*%
X50500000Y-39250000D03*
X31462500Y-49712500D03*
%TO.N,/O_TX_STATE*%
X31450000Y-51800000D03*
X51250000Y-40000000D03*
%TO.N,/UART_TX*%
X48250000Y-40000000D03*
X44250000Y-48750000D03*
%TO.N,/I_D_Sel*%
X35287500Y-51962500D03*
X52000000Y-39250000D03*
%TO.N,/I_RESET*%
X52750000Y-40000000D03*
X39000000Y-52250000D03*
%TO.N,/TIMER*%
X44462500Y-52787500D03*
X53500000Y-39250000D03*
%TO.N,/12V*%
X63821900Y-46146900D03*
X61121900Y-46846900D03*
%TO.N,/5v_antenne*%
X63650000Y-36675000D03*
X60725000Y-36450000D03*
%TD*%
D18*
%TO.N,/3v3_puce*%
X66415000Y-41865000D02*
X66415000Y-42700000D01*
X62416500Y-37866500D02*
X66415000Y-41865000D01*
X48883500Y-37866500D02*
X62416500Y-37866500D01*
X46085000Y-40665000D02*
X48883500Y-37866500D01*
D19*
%TO.N,/I{slash}O *%
X35750000Y-50000000D02*
X35262500Y-49512500D01*
X49750000Y-40000000D02*
X49750000Y-46750000D01*
X49750000Y-46750000D02*
X46500000Y-50000000D01*
X46500000Y-50000000D02*
X35750000Y-50000000D01*
%TO.N,/UART_RX*%
X39250000Y-49500000D02*
X38987500Y-49237500D01*
X49000000Y-39250000D02*
X49000000Y-46750000D01*
X46250000Y-49500000D02*
X39250000Y-49500000D01*
X49000000Y-46750000D02*
X46250000Y-49500000D01*
%TO.N,/I{slash}O_CLK_SELECT*%
X50500000Y-46750000D02*
X46750000Y-50500000D01*
X50500000Y-39250000D02*
X50500000Y-46750000D01*
X32250000Y-50500000D02*
X31462500Y-49712500D01*
X46750000Y-50500000D02*
X32250000Y-50500000D01*
%TO.N,/O_TX_STATE*%
X47000000Y-51000000D02*
X32250000Y-51000000D01*
X51250000Y-46750000D02*
X47000000Y-51000000D01*
X32250000Y-51000000D02*
X31450000Y-51800000D01*
X51250000Y-40000000D02*
X51250000Y-46750000D01*
%TO.N,/UART_TX*%
X48250000Y-40000000D02*
X48250000Y-46750000D01*
X48250000Y-46750000D02*
X46250000Y-48750000D01*
X46250000Y-48750000D02*
X44250000Y-48750000D01*
%TO.N,/I_D_Sel*%
X47250000Y-51500000D02*
X35750000Y-51500000D01*
X35750000Y-51500000D02*
X35287500Y-51962500D01*
X52000000Y-39250000D02*
X52000000Y-46750000D01*
X52000000Y-46750000D02*
X47250000Y-51500000D01*
%TO.N,/I_RESET*%
X47500000Y-52000000D02*
X39250000Y-52000000D01*
X39250000Y-52000000D02*
X39000000Y-52250000D01*
X52750000Y-46750000D02*
X47500000Y-52000000D01*
X52750000Y-40000000D02*
X52750000Y-46750000D01*
%TO.N,/TIMER*%
X47462500Y-52787500D02*
X44462500Y-52787500D01*
X53500000Y-39250000D02*
X53500000Y-46750000D01*
X53500000Y-46750000D02*
X47462500Y-52787500D01*
D18*
%TO.N,/12V*%
X63821900Y-46146900D02*
X63121900Y-46846900D01*
X63121900Y-46846900D02*
X61121900Y-46846900D01*
%TO.N,/5v_antenne*%
X63425000Y-36450000D02*
X60725000Y-36450000D01*
X63650000Y-36675000D02*
X63425000Y-36450000D01*
%TD*%
%TA.AperFunction,Conductor*%
%TO.N,GND*%
G36*
X69436068Y-18670185D02*
G01*
X69481823Y-18722989D01*
X69491767Y-18792147D01*
X69462742Y-18855703D01*
X69408888Y-18891919D01*
X69336919Y-18916349D01*
X69072334Y-19046828D01*
X68827041Y-19210728D01*
X68605241Y-19405241D01*
X68410728Y-19627041D01*
X68246828Y-19872334D01*
X68116349Y-20136919D01*
X68021521Y-20416269D01*
X68021518Y-20416283D01*
X67963968Y-20705609D01*
X67963964Y-20705636D01*
X67944671Y-20999992D01*
X67944671Y-21000007D01*
X67963964Y-21294363D01*
X67963965Y-21294373D01*
X67963966Y-21294380D01*
X67963968Y-21294390D01*
X68021518Y-21583716D01*
X68021521Y-21583730D01*
X68116349Y-21863080D01*
X68246825Y-22127660D01*
X68246829Y-22127667D01*
X68410725Y-22372955D01*
X68605241Y-22594758D01*
X68827044Y-22789274D01*
X69072332Y-22953170D01*
X69072335Y-22953172D01*
X69336923Y-23083652D01*
X69616278Y-23178481D01*
X69905620Y-23236034D01*
X69933888Y-23237886D01*
X70199993Y-23255329D01*
X70200000Y-23255329D01*
X70200007Y-23255329D01*
X70435675Y-23239881D01*
X70494380Y-23236034D01*
X70783722Y-23178481D01*
X71063077Y-23083652D01*
X71327665Y-22953172D01*
X71572957Y-22789273D01*
X71794758Y-22594758D01*
X71989273Y-22372957D01*
X72153172Y-22127665D01*
X72283652Y-21863077D01*
X72378481Y-21583722D01*
X72436034Y-21294380D01*
X72442588Y-21194390D01*
X72455329Y-21000007D01*
X72455329Y-20999992D01*
X72436035Y-20705636D01*
X72436034Y-20705620D01*
X72378481Y-20416278D01*
X72283652Y-20136923D01*
X72153172Y-19872336D01*
X71989273Y-19627043D01*
X71901575Y-19527043D01*
X71794758Y-19405241D01*
X71572955Y-19210725D01*
X71327667Y-19046829D01*
X71327660Y-19046825D01*
X71063080Y-18916349D01*
X70991112Y-18891919D01*
X70933958Y-18851730D01*
X70907605Y-18787021D01*
X70920419Y-18718336D01*
X70968334Y-18667483D01*
X71030971Y-18650500D01*
X79675500Y-18650500D01*
X79742539Y-18670185D01*
X79788294Y-18722989D01*
X79799500Y-18774500D01*
X79799500Y-23561000D01*
X79779815Y-23628039D01*
X79727011Y-23673794D01*
X79675500Y-23685000D01*
X77700000Y-23685000D01*
X77700000Y-25685000D01*
X79675500Y-25685000D01*
X79742539Y-25704685D01*
X79788294Y-25757489D01*
X79799500Y-25809000D01*
X79799500Y-29101000D01*
X79779815Y-29168039D01*
X79727011Y-29213794D01*
X79675500Y-29225000D01*
X77700000Y-29225000D01*
X77700000Y-31225000D01*
X79675500Y-31225000D01*
X79742539Y-31244685D01*
X79788294Y-31297489D01*
X79799500Y-31349000D01*
X79799500Y-60716322D01*
X79779815Y-60783361D01*
X79727011Y-60829116D01*
X79657853Y-60839060D01*
X79594297Y-60810035D01*
X79558081Y-60756181D01*
X79532062Y-60679534D01*
X79483652Y-60536923D01*
X79353172Y-60272336D01*
X79189273Y-60027043D01*
X79145422Y-59977041D01*
X78994758Y-59805241D01*
X78772955Y-59610725D01*
X78527667Y-59446829D01*
X78527660Y-59446825D01*
X78263080Y-59316349D01*
X77983730Y-59221521D01*
X77983724Y-59221519D01*
X77983722Y-59221519D01*
X77694380Y-59163966D01*
X77694373Y-59163965D01*
X77694363Y-59163964D01*
X77400007Y-59144671D01*
X77399993Y-59144671D01*
X77105636Y-59163964D01*
X77105624Y-59163965D01*
X77105620Y-59163966D01*
X77105612Y-59163967D01*
X77105609Y-59163968D01*
X76816283Y-59221518D01*
X76816269Y-59221521D01*
X76536919Y-59316349D01*
X76272334Y-59446828D01*
X76027041Y-59610728D01*
X75805241Y-59805241D01*
X75610728Y-60027041D01*
X75446828Y-60272334D01*
X75316349Y-60536919D01*
X75221521Y-60816269D01*
X75221518Y-60816283D01*
X75163968Y-61105609D01*
X75163964Y-61105636D01*
X75144671Y-61399992D01*
X75144671Y-61400007D01*
X75163964Y-61694363D01*
X75163965Y-61694373D01*
X75163966Y-61694380D01*
X75163968Y-61694390D01*
X75221518Y-61983716D01*
X75221521Y-61983730D01*
X75316349Y-62263080D01*
X75446825Y-62527660D01*
X75446829Y-62527667D01*
X75610725Y-62772955D01*
X75805241Y-62994758D01*
X75970029Y-63139273D01*
X76027043Y-63189273D01*
X76272335Y-63353172D01*
X76536923Y-63483652D01*
X76743815Y-63553883D01*
X76756182Y-63558081D01*
X76813336Y-63598270D01*
X76839689Y-63662979D01*
X76826875Y-63731664D01*
X76778961Y-63782517D01*
X76716323Y-63799500D01*
X23130207Y-63799500D01*
X23063168Y-63779815D01*
X23017413Y-63727011D01*
X23007469Y-63657853D01*
X23036494Y-63594297D01*
X23095272Y-63556523D01*
X23106016Y-63553883D01*
X23106775Y-63553731D01*
X23233722Y-63528481D01*
X23513077Y-63433652D01*
X23777665Y-63303172D01*
X24022957Y-63139273D01*
X24244758Y-62944758D01*
X24439273Y-62722957D01*
X24603172Y-62477665D01*
X24733652Y-62213077D01*
X24828481Y-61933722D01*
X24886034Y-61644380D01*
X24889881Y-61585675D01*
X24905329Y-61350007D01*
X24905329Y-61349992D01*
X24886035Y-61055636D01*
X24886034Y-61055620D01*
X24828481Y-60766278D01*
X24733652Y-60486923D01*
X24603172Y-60222336D01*
X24439273Y-59977043D01*
X24396655Y-59928447D01*
X24244758Y-59755241D01*
X24022955Y-59560725D01*
X23777667Y-59396829D01*
X23777660Y-59396825D01*
X23513080Y-59266349D01*
X23233730Y-59171521D01*
X23233724Y-59171519D01*
X23233722Y-59171519D01*
X22944380Y-59113966D01*
X22944373Y-59113965D01*
X22944363Y-59113964D01*
X22650007Y-59094671D01*
X22649993Y-59094671D01*
X22355636Y-59113964D01*
X22355624Y-59113965D01*
X22355620Y-59113966D01*
X22355612Y-59113967D01*
X22355609Y-59113968D01*
X22066283Y-59171518D01*
X22066269Y-59171521D01*
X21786919Y-59266349D01*
X21522334Y-59396828D01*
X21277041Y-59560728D01*
X21055241Y-59755241D01*
X20860728Y-59977041D01*
X20696828Y-60222334D01*
X20566349Y-60486919D01*
X20471521Y-60766269D01*
X20471518Y-60766283D01*
X20446117Y-60893984D01*
X20413732Y-60955895D01*
X20353017Y-60990469D01*
X20283247Y-60986730D01*
X20226575Y-60945864D01*
X20200994Y-60880845D01*
X20200500Y-60869793D01*
X20200500Y-53892155D01*
X56650000Y-53892155D01*
X56650000Y-54490000D01*
X57516987Y-54490000D01*
X57484074Y-54547007D01*
X57449999Y-54674174D01*
X57449999Y-54805826D01*
X57484074Y-54932993D01*
X57516987Y-54990000D01*
X56650000Y-54990000D01*
X56650000Y-55587844D01*
X56656401Y-55647372D01*
X56656403Y-55647379D01*
X56706645Y-55782086D01*
X56706649Y-55782093D01*
X56792809Y-55897187D01*
X56792812Y-55897190D01*
X56907906Y-55983350D01*
X56907913Y-55983354D01*
X57042620Y-56033596D01*
X57042627Y-56033598D01*
X57102155Y-56039999D01*
X57102172Y-56040000D01*
X57700000Y-56040000D01*
X57700000Y-55173013D01*
X57757007Y-55205926D01*
X57884174Y-55240001D01*
X58015826Y-55240001D01*
X58142993Y-55205926D01*
X58200000Y-55173013D01*
X58200000Y-56040000D01*
X58797828Y-56040000D01*
X58797844Y-56039999D01*
X58857372Y-56033598D01*
X58857379Y-56033596D01*
X58992086Y-55983354D01*
X58992093Y-55983350D01*
X59107187Y-55897190D01*
X59107190Y-55897187D01*
X59193350Y-55782093D01*
X59193354Y-55782086D01*
X59243596Y-55647379D01*
X59243598Y-55647372D01*
X59249999Y-55587844D01*
X59250000Y-55587827D01*
X59250000Y-54990000D01*
X58383013Y-54990000D01*
X58415926Y-54932993D01*
X58450001Y-54805826D01*
X58450001Y-54674174D01*
X58415926Y-54547007D01*
X58383013Y-54490000D01*
X59250000Y-54490000D01*
X59250000Y-53892172D01*
X59249999Y-53892155D01*
X59243598Y-53832627D01*
X59243596Y-53832620D01*
X59193354Y-53697913D01*
X59193350Y-53697906D01*
X59107190Y-53582812D01*
X59107187Y-53582809D01*
X58992093Y-53496649D01*
X58992086Y-53496645D01*
X58857379Y-53446403D01*
X58857372Y-53446401D01*
X58797844Y-53440000D01*
X58091538Y-53440000D01*
X58024499Y-53420315D01*
X57978744Y-53367511D01*
X57968800Y-53298353D01*
X57997825Y-53234797D01*
X58056603Y-53197023D01*
X58079384Y-53192597D01*
X58080126Y-53192523D01*
X58146132Y-53186023D01*
X58334727Y-53128813D01*
X58508537Y-53035910D01*
X58660883Y-52910883D01*
X58785910Y-52758537D01*
X58878813Y-52584727D01*
X58936023Y-52396132D01*
X58955340Y-52200000D01*
X58936023Y-52003868D01*
X58878813Y-51815273D01*
X58870917Y-51800500D01*
X58785911Y-51641464D01*
X58785909Y-51641461D01*
X58660883Y-51489116D01*
X58508538Y-51364090D01*
X58508535Y-51364088D01*
X58334732Y-51271189D01*
X58334729Y-51271188D01*
X58334727Y-51271187D01*
X58146132Y-51213977D01*
X58146129Y-51213976D01*
X57950000Y-51194660D01*
X57753870Y-51213976D01*
X57624462Y-51253232D01*
X57565273Y-51271187D01*
X57565272Y-51271187D01*
X57565267Y-51271189D01*
X57391464Y-51364088D01*
X57391461Y-51364090D01*
X57239116Y-51489116D01*
X57114090Y-51641461D01*
X57114088Y-51641464D01*
X57021189Y-51815267D01*
X57021187Y-51815272D01*
X57021187Y-51815273D01*
X57011239Y-51848067D01*
X56963976Y-52003870D01*
X56944660Y-52200000D01*
X56963976Y-52396129D01*
X56963977Y-52396132D01*
X57002575Y-52523373D01*
X57021189Y-52584732D01*
X57114088Y-52758535D01*
X57114090Y-52758538D01*
X57239116Y-52910883D01*
X57391461Y-53035909D01*
X57391464Y-53035911D01*
X57498314Y-53093023D01*
X57565273Y-53128813D01*
X57753868Y-53186023D01*
X57819508Y-53192487D01*
X57820616Y-53192597D01*
X57885403Y-53218758D01*
X57925762Y-53275792D01*
X57928879Y-53345592D01*
X57893765Y-53405997D01*
X57831567Y-53437828D01*
X57808462Y-53440000D01*
X57102155Y-53440000D01*
X57042627Y-53446401D01*
X57042620Y-53446403D01*
X56907913Y-53496645D01*
X56907906Y-53496649D01*
X56792812Y-53582809D01*
X56792809Y-53582812D01*
X56706649Y-53697906D01*
X56706645Y-53697913D01*
X56656403Y-53832620D01*
X56656401Y-53832627D01*
X56650000Y-53892155D01*
X20200500Y-53892155D01*
X20200500Y-51800000D01*
X30944353Y-51800000D01*
X30964834Y-51942456D01*
X30994697Y-52007845D01*
X31024623Y-52073373D01*
X31118872Y-52182143D01*
X31239947Y-52259953D01*
X31239950Y-52259954D01*
X31239949Y-52259954D01*
X31378036Y-52300499D01*
X31378038Y-52300500D01*
X31378039Y-52300500D01*
X31521962Y-52300500D01*
X31521962Y-52300499D01*
X31660053Y-52259953D01*
X31781128Y-52182143D01*
X31875377Y-52073373D01*
X31935165Y-51942457D01*
X31955647Y-51800000D01*
X31954339Y-51790905D01*
X31964279Y-51721749D01*
X31989392Y-51685577D01*
X32338152Y-51336819D01*
X32399475Y-51303334D01*
X32425833Y-51300500D01*
X34969533Y-51300500D01*
X35036572Y-51320185D01*
X35082327Y-51372989D01*
X35092271Y-51442147D01*
X35063246Y-51505703D01*
X35036572Y-51528816D01*
X34956373Y-51580356D01*
X34862123Y-51689126D01*
X34862122Y-51689128D01*
X34802334Y-51820043D01*
X34781853Y-51962500D01*
X34802334Y-52104956D01*
X34837585Y-52182143D01*
X34862123Y-52235873D01*
X34956372Y-52344643D01*
X35077447Y-52422453D01*
X35077450Y-52422454D01*
X35077449Y-52422454D01*
X35215536Y-52462999D01*
X35215538Y-52463000D01*
X35215539Y-52463000D01*
X35359462Y-52463000D01*
X35359462Y-52462999D01*
X35497553Y-52422453D01*
X35618628Y-52344643D01*
X35712877Y-52235873D01*
X35772665Y-52104957D01*
X35793147Y-51962500D01*
X35791839Y-51953406D01*
X35801779Y-51884250D01*
X35826903Y-51848067D01*
X35838161Y-51836811D01*
X35899487Y-51803331D01*
X35925834Y-51800500D01*
X38462110Y-51800500D01*
X38529149Y-51820185D01*
X38574904Y-51872989D01*
X38584848Y-51942147D01*
X38574904Y-51976012D01*
X38514834Y-52107543D01*
X38494353Y-52250000D01*
X38514834Y-52392456D01*
X38528534Y-52422454D01*
X38574623Y-52523373D01*
X38668872Y-52632143D01*
X38789947Y-52709953D01*
X38789950Y-52709954D01*
X38789949Y-52709954D01*
X38928036Y-52750499D01*
X38928038Y-52750500D01*
X38928039Y-52750500D01*
X39071962Y-52750500D01*
X39071962Y-52750499D01*
X39210053Y-52709953D01*
X39331128Y-52632143D01*
X39425377Y-52523373D01*
X39485165Y-52392457D01*
X39485165Y-52392450D01*
X39486015Y-52389562D01*
X39487645Y-52387024D01*
X39488849Y-52384390D01*
X39489227Y-52384563D01*
X39523791Y-52330785D01*
X39587348Y-52301762D01*
X39604991Y-52300500D01*
X43950710Y-52300500D01*
X44017749Y-52320185D01*
X44063504Y-52372989D01*
X44073448Y-52442147D01*
X44044423Y-52505701D01*
X44044422Y-52505704D01*
X44037123Y-52514127D01*
X44037122Y-52514128D01*
X43977334Y-52645043D01*
X43956853Y-52787500D01*
X43977334Y-52929956D01*
X44025723Y-53035911D01*
X44037123Y-53060873D01*
X44131372Y-53169643D01*
X44252447Y-53247453D01*
X44252450Y-53247454D01*
X44252449Y-53247454D01*
X44390536Y-53287999D01*
X44390538Y-53288000D01*
X44390539Y-53288000D01*
X44534462Y-53288000D01*
X44534462Y-53287999D01*
X44672553Y-53247453D01*
X44793628Y-53169643D01*
X44827288Y-53130796D01*
X44886067Y-53093023D01*
X44921001Y-53088000D01*
X47502060Y-53088000D01*
X47502062Y-53088000D01*
X47578489Y-53067521D01*
X47647011Y-53027960D01*
X47702960Y-52972011D01*
X51014971Y-49660000D01*
X56944660Y-49660000D01*
X56963976Y-49856129D01*
X57021189Y-50044732D01*
X57114088Y-50218535D01*
X57114090Y-50218538D01*
X57239116Y-50370883D01*
X57391461Y-50495909D01*
X57391464Y-50495911D01*
X57498707Y-50553233D01*
X57565273Y-50588813D01*
X57753868Y-50646023D01*
X57950000Y-50665340D01*
X58146132Y-50646023D01*
X58334727Y-50588813D01*
X58508537Y-50495910D01*
X58660883Y-50370883D01*
X58785910Y-50218537D01*
X58801805Y-50188800D01*
X61773996Y-50188800D01*
X61792784Y-50427523D01*
X61848684Y-50660362D01*
X61848684Y-50660364D01*
X61940317Y-50881587D01*
X61940319Y-50881590D01*
X62065433Y-51085757D01*
X62065434Y-51085760D01*
X62065437Y-51085763D01*
X62220952Y-51267848D01*
X62333635Y-51364088D01*
X62403039Y-51423365D01*
X62403042Y-51423366D01*
X62607209Y-51548480D01*
X62607212Y-51548482D01*
X62828436Y-51640115D01*
X62828437Y-51640115D01*
X62828439Y-51640116D01*
X63061280Y-51696016D01*
X63300000Y-51714804D01*
X63538720Y-51696016D01*
X63771561Y-51640116D01*
X63771563Y-51640115D01*
X63771564Y-51640115D01*
X63992787Y-51548482D01*
X63992788Y-51548481D01*
X63992791Y-51548480D01*
X64196963Y-51423363D01*
X64379048Y-51267848D01*
X64415644Y-51225000D01*
X66396048Y-51225000D01*
X66415802Y-51412943D01*
X66415803Y-51412946D01*
X66474199Y-51592671D01*
X66474200Y-51592673D01*
X66568684Y-51756326D01*
X66568685Y-51756328D01*
X66568687Y-51756330D01*
X66695138Y-51896767D01*
X66695141Y-51896769D01*
X66848019Y-52007842D01*
X66848020Y-52007842D01*
X66848024Y-52007845D01*
X66988817Y-52070530D01*
X67020658Y-52084707D01*
X67020663Y-52084709D01*
X67205511Y-52124000D01*
X67394489Y-52124000D01*
X67579337Y-52084709D01*
X67751976Y-52007845D01*
X67904862Y-51896767D01*
X68031313Y-51756330D01*
X68125801Y-51592670D01*
X68184198Y-51412942D01*
X68203952Y-51225000D01*
X70396048Y-51225000D01*
X70415802Y-51412943D01*
X70415803Y-51412946D01*
X70474199Y-51592671D01*
X70474200Y-51592673D01*
X70568684Y-51756326D01*
X70568685Y-51756328D01*
X70568687Y-51756330D01*
X70695138Y-51896767D01*
X70695141Y-51896769D01*
X70848019Y-52007842D01*
X70848020Y-52007842D01*
X70848024Y-52007845D01*
X70988817Y-52070530D01*
X71020658Y-52084707D01*
X71020663Y-52084709D01*
X71205511Y-52124000D01*
X71394489Y-52124000D01*
X71579337Y-52084709D01*
X71751976Y-52007845D01*
X71904862Y-51896767D01*
X72031313Y-51756330D01*
X72125801Y-51592670D01*
X72184198Y-51412942D01*
X72203952Y-51225000D01*
X72184198Y-51037058D01*
X72125801Y-50857330D01*
X72114456Y-50837680D01*
X72031315Y-50693673D01*
X72031314Y-50693672D01*
X72031313Y-50693670D01*
X71904862Y-50553233D01*
X71904858Y-50553230D01*
X71751980Y-50442157D01*
X71751977Y-50442155D01*
X71751976Y-50442155D01*
X71689289Y-50414245D01*
X71579341Y-50365292D01*
X71579336Y-50365290D01*
X71394489Y-50326000D01*
X71205511Y-50326000D01*
X71020663Y-50365290D01*
X71020658Y-50365292D01*
X70848024Y-50442155D01*
X70848019Y-50442157D01*
X70695141Y-50553230D01*
X70695138Y-50553232D01*
X70695138Y-50553233D01*
X70631912Y-50623451D01*
X70568684Y-50693673D01*
X70474200Y-50857326D01*
X70474199Y-50857328D01*
X70415803Y-51037053D01*
X70415802Y-51037056D01*
X70396048Y-51225000D01*
X68203952Y-51225000D01*
X68184198Y-51037058D01*
X68125801Y-50857330D01*
X68114456Y-50837680D01*
X68031315Y-50693673D01*
X68031314Y-50693672D01*
X68031313Y-50693670D01*
X67904862Y-50553233D01*
X67904858Y-50553230D01*
X67751980Y-50442157D01*
X67751977Y-50442155D01*
X67751976Y-50442155D01*
X67689289Y-50414245D01*
X67579341Y-50365292D01*
X67579336Y-50365290D01*
X67394489Y-50326000D01*
X67205511Y-50326000D01*
X67020663Y-50365290D01*
X67020658Y-50365292D01*
X66848024Y-50442155D01*
X66848019Y-50442157D01*
X66695141Y-50553230D01*
X66695138Y-50553232D01*
X66695138Y-50553233D01*
X66631912Y-50623451D01*
X66568684Y-50693673D01*
X66474200Y-50857326D01*
X66474199Y-50857328D01*
X66415803Y-51037053D01*
X66415802Y-51037056D01*
X66396048Y-51225000D01*
X64415644Y-51225000D01*
X64534563Y-51085763D01*
X64659680Y-50881591D01*
X64669730Y-50857330D01*
X64751315Y-50660364D01*
X64751315Y-50660363D01*
X64751316Y-50660361D01*
X64807216Y-50427520D01*
X64826004Y-50188800D01*
X64807216Y-49950080D01*
X64751316Y-49717239D01*
X64751315Y-49717236D01*
X64751315Y-49717235D01*
X64659682Y-49496012D01*
X64659680Y-49496009D01*
X64558168Y-49330357D01*
X64534565Y-49291841D01*
X64534565Y-49291839D01*
X64470074Y-49216330D01*
X64379048Y-49109752D01*
X64258663Y-49006933D01*
X64196960Y-48954234D01*
X64196957Y-48954233D01*
X63992790Y-48829119D01*
X63992787Y-48829117D01*
X63771563Y-48737484D01*
X63552952Y-48685000D01*
X66396048Y-48685000D01*
X66415802Y-48872943D01*
X66415803Y-48872946D01*
X66474199Y-49052671D01*
X66474200Y-49052673D01*
X66568684Y-49216326D01*
X66568685Y-49216328D01*
X66568687Y-49216330D01*
X66695138Y-49356767D01*
X66695141Y-49356769D01*
X66848019Y-49467842D01*
X66848020Y-49467842D01*
X66848024Y-49467845D01*
X66988817Y-49530530D01*
X67020658Y-49544707D01*
X67020663Y-49544709D01*
X67205511Y-49584000D01*
X67394489Y-49584000D01*
X67579337Y-49544709D01*
X67751976Y-49467845D01*
X67904862Y-49356767D01*
X68031313Y-49216330D01*
X68125801Y-49052670D01*
X68184198Y-48872942D01*
X68203952Y-48685000D01*
X70396048Y-48685000D01*
X70415802Y-48872943D01*
X70415803Y-48872946D01*
X70474199Y-49052671D01*
X70474200Y-49052673D01*
X70568684Y-49216326D01*
X70568685Y-49216328D01*
X70568687Y-49216330D01*
X70695138Y-49356767D01*
X70695141Y-49356769D01*
X70848019Y-49467842D01*
X70848020Y-49467842D01*
X70848024Y-49467845D01*
X70988817Y-49530530D01*
X71020658Y-49544707D01*
X71020663Y-49544709D01*
X71205511Y-49584000D01*
X71394489Y-49584000D01*
X71579337Y-49544709D01*
X71751976Y-49467845D01*
X71904862Y-49356767D01*
X72031313Y-49216330D01*
X72125801Y-49052670D01*
X72184198Y-48872942D01*
X72203952Y-48685000D01*
X72184198Y-48497058D01*
X72125801Y-48317330D01*
X72110049Y-48290047D01*
X72031315Y-48153673D01*
X72031314Y-48153672D01*
X72031313Y-48153670D01*
X71904862Y-48013233D01*
X71904858Y-48013230D01*
X71751980Y-47902157D01*
X71751977Y-47902155D01*
X71751976Y-47902155D01*
X71689289Y-47874245D01*
X71579341Y-47825292D01*
X71579336Y-47825290D01*
X71394489Y-47786000D01*
X71205511Y-47786000D01*
X71020663Y-47825290D01*
X71020658Y-47825292D01*
X70848024Y-47902155D01*
X70848019Y-47902157D01*
X70695141Y-48013230D01*
X70568684Y-48153673D01*
X70474200Y-48317326D01*
X70474199Y-48317328D01*
X70415803Y-48497053D01*
X70415802Y-48497056D01*
X70396048Y-48685000D01*
X68203952Y-48685000D01*
X68184198Y-48497058D01*
X68125801Y-48317330D01*
X68110049Y-48290047D01*
X68031315Y-48153673D01*
X68031314Y-48153672D01*
X68031313Y-48153670D01*
X67904862Y-48013233D01*
X67904858Y-48013230D01*
X67751980Y-47902157D01*
X67751977Y-47902155D01*
X67751976Y-47902155D01*
X67689289Y-47874245D01*
X67579341Y-47825292D01*
X67579336Y-47825290D01*
X67394489Y-47786000D01*
X67205511Y-47786000D01*
X67020663Y-47825290D01*
X67020658Y-47825292D01*
X66848024Y-47902155D01*
X66848019Y-47902157D01*
X66695141Y-48013230D01*
X66568684Y-48153673D01*
X66474200Y-48317326D01*
X66474199Y-48317328D01*
X66415803Y-48497053D01*
X66415802Y-48497056D01*
X66396048Y-48685000D01*
X63552952Y-48685000D01*
X63538723Y-48681584D01*
X63300000Y-48662796D01*
X63061276Y-48681584D01*
X62828437Y-48737484D01*
X62828435Y-48737484D01*
X62607212Y-48829117D01*
X62607209Y-48829119D01*
X62403042Y-48954233D01*
X62403039Y-48954234D01*
X62220952Y-49109752D01*
X62065434Y-49291839D01*
X62065433Y-49291842D01*
X61940319Y-49496009D01*
X61940317Y-49496012D01*
X61848684Y-49717235D01*
X61848684Y-49717237D01*
X61792784Y-49950076D01*
X61773996Y-50188800D01*
X58801805Y-50188800D01*
X58878813Y-50044727D01*
X58936023Y-49856132D01*
X58955340Y-49660000D01*
X58936023Y-49463868D01*
X58878813Y-49275273D01*
X58858623Y-49237500D01*
X58785911Y-49101464D01*
X58785909Y-49101461D01*
X58660883Y-48949116D01*
X58508538Y-48824090D01*
X58508535Y-48824088D01*
X58334732Y-48731189D01*
X58334729Y-48731188D01*
X58334727Y-48731187D01*
X58146132Y-48673977D01*
X58146129Y-48673976D01*
X57950000Y-48654660D01*
X57753870Y-48673976D01*
X57624462Y-48713232D01*
X57565273Y-48731187D01*
X57565272Y-48731187D01*
X57565267Y-48731189D01*
X57391464Y-48824088D01*
X57391461Y-48824090D01*
X57239116Y-48949116D01*
X57114090Y-49101461D01*
X57114088Y-49101464D01*
X57021189Y-49275267D01*
X56963976Y-49463870D01*
X56944660Y-49660000D01*
X51014971Y-49660000D01*
X53740460Y-46934511D01*
X53760600Y-46899627D01*
X53780021Y-46865989D01*
X53785136Y-46846900D01*
X60616253Y-46846900D01*
X60636734Y-46989356D01*
X60696522Y-47120271D01*
X60696523Y-47120273D01*
X60790772Y-47229043D01*
X60911847Y-47306853D01*
X60911850Y-47306854D01*
X60911849Y-47306854D01*
X61049936Y-47347399D01*
X61049938Y-47347400D01*
X61049939Y-47347400D01*
X61193862Y-47347400D01*
X61193862Y-47347399D01*
X61331950Y-47306854D01*
X61331951Y-47306854D01*
X61393836Y-47267084D01*
X61460874Y-47247400D01*
X63174625Y-47247400D01*
X63174627Y-47247400D01*
X63276488Y-47220107D01*
X63367813Y-47167380D01*
X63862892Y-46672300D01*
X63915637Y-46641006D01*
X64031950Y-46606854D01*
X64031950Y-46606853D01*
X64031953Y-46606853D01*
X64153028Y-46529043D01*
X64247277Y-46420273D01*
X64307065Y-46289357D01*
X64327547Y-46146900D01*
X64307065Y-46004443D01*
X64247277Y-45873527D01*
X64153028Y-45764757D01*
X64031953Y-45686947D01*
X64031951Y-45686946D01*
X64031949Y-45686945D01*
X64031950Y-45686945D01*
X63893863Y-45646400D01*
X63893861Y-45646400D01*
X63749939Y-45646400D01*
X63749936Y-45646400D01*
X63611849Y-45686945D01*
X63490773Y-45764756D01*
X63396523Y-45873526D01*
X63396522Y-45873528D01*
X63336735Y-46004441D01*
X63336734Y-46004445D01*
X63332326Y-46035104D01*
X63303300Y-46098659D01*
X63297270Y-46105136D01*
X62992324Y-46410082D01*
X62931003Y-46443566D01*
X62904645Y-46446400D01*
X61460874Y-46446400D01*
X61393836Y-46426716D01*
X61331950Y-46386945D01*
X61193863Y-46346400D01*
X61193861Y-46346400D01*
X61049939Y-46346400D01*
X61049936Y-46346400D01*
X60911849Y-46386945D01*
X60790773Y-46464756D01*
X60696523Y-46573526D01*
X60696522Y-46573528D01*
X60636734Y-46704443D01*
X60616253Y-46846900D01*
X53785136Y-46846900D01*
X53800500Y-46789562D01*
X53800500Y-39713738D01*
X53820185Y-39646699D01*
X53830787Y-39632535D01*
X53831124Y-39632144D01*
X53831128Y-39632143D01*
X53925377Y-39523373D01*
X53985165Y-39392457D01*
X54005647Y-39250000D01*
X53985165Y-39107543D01*
X53925377Y-38976627D01*
X53831128Y-38867857D01*
X53710053Y-38790047D01*
X53710051Y-38790046D01*
X53710049Y-38790045D01*
X53710050Y-38790045D01*
X53571963Y-38749500D01*
X53571961Y-38749500D01*
X53428039Y-38749500D01*
X53428036Y-38749500D01*
X53289949Y-38790045D01*
X53168873Y-38867856D01*
X53074623Y-38976626D01*
X53074622Y-38976628D01*
X53014834Y-39107543D01*
X52994353Y-39250000D01*
X53011945Y-39372364D01*
X53002001Y-39441522D01*
X52956246Y-39494326D01*
X52889206Y-39514010D01*
X52854273Y-39508987D01*
X52821963Y-39499500D01*
X52821961Y-39499500D01*
X52678039Y-39499500D01*
X52678035Y-39499500D01*
X52645726Y-39508987D01*
X52575856Y-39508987D01*
X52517078Y-39471212D01*
X52488054Y-39407656D01*
X52488054Y-39372363D01*
X52492382Y-39342258D01*
X52505647Y-39250000D01*
X52485165Y-39107543D01*
X52425377Y-38976627D01*
X52331128Y-38867857D01*
X52210053Y-38790047D01*
X52210051Y-38790046D01*
X52210049Y-38790045D01*
X52210050Y-38790045D01*
X52071963Y-38749500D01*
X52071961Y-38749500D01*
X51928039Y-38749500D01*
X51928036Y-38749500D01*
X51789949Y-38790045D01*
X51668873Y-38867856D01*
X51574623Y-38976626D01*
X51574622Y-38976628D01*
X51514834Y-39107543D01*
X51494353Y-39250000D01*
X51511945Y-39372364D01*
X51502001Y-39441522D01*
X51456246Y-39494326D01*
X51389206Y-39514010D01*
X51354273Y-39508987D01*
X51321963Y-39499500D01*
X51321961Y-39499500D01*
X51178039Y-39499500D01*
X51178035Y-39499500D01*
X51145726Y-39508987D01*
X51075856Y-39508987D01*
X51017078Y-39471212D01*
X50988054Y-39407656D01*
X50988054Y-39372363D01*
X50992382Y-39342258D01*
X51005647Y-39250000D01*
X50985165Y-39107543D01*
X50925377Y-38976627D01*
X50831128Y-38867857D01*
X50710053Y-38790047D01*
X50710051Y-38790046D01*
X50710049Y-38790045D01*
X50710050Y-38790045D01*
X50571963Y-38749500D01*
X50571961Y-38749500D01*
X50428039Y-38749500D01*
X50428036Y-38749500D01*
X50289949Y-38790045D01*
X50168873Y-38867856D01*
X50074623Y-38976626D01*
X50074622Y-38976628D01*
X50014834Y-39107543D01*
X49994353Y-39250000D01*
X50011945Y-39372364D01*
X50002001Y-39441522D01*
X49956246Y-39494326D01*
X49889206Y-39514010D01*
X49854273Y-39508987D01*
X49821963Y-39499500D01*
X49821961Y-39499500D01*
X49678039Y-39499500D01*
X49678035Y-39499500D01*
X49645726Y-39508987D01*
X49575856Y-39508987D01*
X49517078Y-39471212D01*
X49488054Y-39407656D01*
X49488054Y-39372363D01*
X49492382Y-39342258D01*
X49505647Y-39250000D01*
X49485165Y-39107543D01*
X49425377Y-38976627D01*
X49331128Y-38867857D01*
X49210053Y-38790047D01*
X49210051Y-38790046D01*
X49210049Y-38790045D01*
X49210050Y-38790045D01*
X49071963Y-38749500D01*
X49071961Y-38749500D01*
X48928039Y-38749500D01*
X48882915Y-38762749D01*
X48813046Y-38762748D01*
X48754268Y-38724972D01*
X48725244Y-38661416D01*
X48735188Y-38592258D01*
X48760298Y-38556093D01*
X49013073Y-38303319D01*
X49074396Y-38269834D01*
X49100754Y-38267000D01*
X62199245Y-38267000D01*
X62266284Y-38286685D01*
X62286926Y-38303319D01*
X65978181Y-41994574D01*
X66011666Y-42055897D01*
X66014500Y-42082255D01*
X66014500Y-42351667D01*
X65994815Y-42418706D01*
X65994094Y-42419669D01*
X65989622Y-42426628D01*
X65929834Y-42557543D01*
X65909353Y-42700000D01*
X65929834Y-42842456D01*
X65989622Y-42973371D01*
X65989623Y-42973373D01*
X66083872Y-43082143D01*
X66204947Y-43159953D01*
X66204950Y-43159954D01*
X66204949Y-43159954D01*
X66343036Y-43200499D01*
X66343038Y-43200500D01*
X66343039Y-43200500D01*
X66486962Y-43200500D01*
X66486962Y-43200499D01*
X66625053Y-43159953D01*
X66746128Y-43082143D01*
X66840377Y-42973373D01*
X66900165Y-42842457D01*
X66920647Y-42700000D01*
X66900165Y-42557543D01*
X66840377Y-42426627D01*
X66840374Y-42426624D01*
X66835582Y-42419166D01*
X66838621Y-42417212D01*
X66816749Y-42369224D01*
X66815500Y-42351667D01*
X66815500Y-41812273D01*
X66788207Y-41710413D01*
X66788207Y-41710412D01*
X66776605Y-41690317D01*
X66735480Y-41619087D01*
X62662413Y-37546020D01*
X62616750Y-37519656D01*
X62571089Y-37493293D01*
X62520157Y-37479646D01*
X62469227Y-37466000D01*
X62469226Y-37466000D01*
X48943839Y-37466000D01*
X48943823Y-37465999D01*
X48936227Y-37465999D01*
X48830773Y-37465999D01*
X48762866Y-37484195D01*
X48728912Y-37493293D01*
X48637584Y-37546022D01*
X48563018Y-37620589D01*
X46044009Y-40139597D01*
X45991263Y-40170893D01*
X45874949Y-40205045D01*
X45753873Y-40282856D01*
X45659623Y-40391626D01*
X45659622Y-40391628D01*
X45599834Y-40522543D01*
X45579353Y-40665000D01*
X45599834Y-40807456D01*
X45659622Y-40938371D01*
X45659623Y-40938373D01*
X45753872Y-41047143D01*
X45874947Y-41124953D01*
X45874950Y-41124954D01*
X45874949Y-41124954D01*
X46013036Y-41165499D01*
X46013038Y-41165500D01*
X46013039Y-41165500D01*
X46156962Y-41165500D01*
X46156962Y-41165499D01*
X46295053Y-41124953D01*
X46416128Y-41047143D01*
X46510377Y-40938373D01*
X46570165Y-40807457D01*
X46574573Y-40776797D01*
X46603597Y-40713241D01*
X46609616Y-40706775D01*
X47552778Y-39763613D01*
X47614099Y-39730130D01*
X47683791Y-39735114D01*
X47739724Y-39776986D01*
X47764141Y-39842450D01*
X47763195Y-39868942D01*
X47744353Y-39999999D01*
X47764834Y-40142456D01*
X47824622Y-40273371D01*
X47824623Y-40273373D01*
X47918872Y-40382143D01*
X47918875Y-40382144D01*
X47919213Y-40382535D01*
X47948238Y-40446091D01*
X47949500Y-40463738D01*
X47949500Y-46574167D01*
X47929815Y-46641206D01*
X47913181Y-46661848D01*
X46161848Y-48413181D01*
X46100525Y-48446666D01*
X46074167Y-48449500D01*
X44708501Y-48449500D01*
X44641462Y-48429815D01*
X44614788Y-48406703D01*
X44581128Y-48367857D01*
X44460053Y-48290047D01*
X44460051Y-48290046D01*
X44460049Y-48290045D01*
X44460050Y-48290045D01*
X44321963Y-48249500D01*
X44321961Y-48249500D01*
X44178039Y-48249500D01*
X44178036Y-48249500D01*
X44039949Y-48290045D01*
X43918873Y-48367856D01*
X43824623Y-48476626D01*
X43824622Y-48476628D01*
X43764834Y-48607543D01*
X43744353Y-48750000D01*
X43764834Y-48892456D01*
X43824904Y-49023988D01*
X43834848Y-49093147D01*
X43805823Y-49156702D01*
X43747045Y-49194477D01*
X43712110Y-49199500D01*
X39595130Y-49199500D01*
X39528091Y-49179815D01*
X39482336Y-49127011D01*
X39475427Y-49103480D01*
X39475165Y-49103558D01*
X39472665Y-49095048D01*
X39472665Y-49095043D01*
X39434740Y-49012000D01*
X39412879Y-48964130D01*
X39412876Y-48964126D01*
X39399870Y-48949116D01*
X39318628Y-48855357D01*
X39197553Y-48777547D01*
X39197551Y-48777546D01*
X39197549Y-48777545D01*
X39197550Y-48777545D01*
X39059463Y-48737000D01*
X39059461Y-48737000D01*
X38915539Y-48737000D01*
X38915536Y-48737000D01*
X38777449Y-48777545D01*
X38656373Y-48855356D01*
X38562123Y-48964126D01*
X38562122Y-48964128D01*
X38502334Y-49095043D01*
X38481853Y-49237500D01*
X38502334Y-49379956D01*
X38565807Y-49518940D01*
X38563905Y-49519808D01*
X38580257Y-49575503D01*
X38560571Y-49642542D01*
X38507766Y-49688295D01*
X38456257Y-49699500D01*
X35925833Y-49699500D01*
X35858794Y-49679815D01*
X35838152Y-49663181D01*
X35801895Y-49626924D01*
X35768410Y-49565601D01*
X35766839Y-49521594D01*
X35768147Y-49512500D01*
X35747665Y-49370043D01*
X35687877Y-49239127D01*
X35593628Y-49130357D01*
X35472553Y-49052547D01*
X35472551Y-49052546D01*
X35472549Y-49052545D01*
X35472550Y-49052545D01*
X35334463Y-49012000D01*
X35334461Y-49012000D01*
X35190539Y-49012000D01*
X35190536Y-49012000D01*
X35052449Y-49052545D01*
X34931373Y-49130356D01*
X34931372Y-49130356D01*
X34931372Y-49130357D01*
X34918790Y-49144877D01*
X34837123Y-49239126D01*
X34837122Y-49239128D01*
X34777334Y-49370043D01*
X34756853Y-49512500D01*
X34777334Y-49654956D01*
X34827865Y-49765601D01*
X34837123Y-49785873D01*
X34931372Y-49894643D01*
X35050473Y-49971184D01*
X35096228Y-50023988D01*
X35106172Y-50093147D01*
X35077147Y-50156702D01*
X35018369Y-50194477D01*
X34983434Y-50199500D01*
X32425833Y-50199500D01*
X32358794Y-50179815D01*
X32338152Y-50163181D01*
X32001895Y-49826924D01*
X31968410Y-49765601D01*
X31966839Y-49721594D01*
X31968147Y-49712500D01*
X31947665Y-49570043D01*
X31887877Y-49439127D01*
X31793628Y-49330357D01*
X31672553Y-49252547D01*
X31672551Y-49252546D01*
X31672549Y-49252545D01*
X31672550Y-49252545D01*
X31534463Y-49212000D01*
X31534461Y-49212000D01*
X31390539Y-49212000D01*
X31390536Y-49212000D01*
X31252449Y-49252545D01*
X31131373Y-49330356D01*
X31037123Y-49439126D01*
X31037122Y-49439128D01*
X30977334Y-49570043D01*
X30956853Y-49712500D01*
X30977334Y-49854956D01*
X31030415Y-49971184D01*
X31037123Y-49985873D01*
X31131372Y-50094643D01*
X31252447Y-50172453D01*
X31252450Y-50172454D01*
X31252449Y-50172454D01*
X31359607Y-50203917D01*
X31387780Y-50212190D01*
X31390536Y-50212999D01*
X31390538Y-50213000D01*
X31486667Y-50213000D01*
X31553706Y-50232685D01*
X31574348Y-50249319D01*
X31987347Y-50662318D01*
X32020832Y-50723641D01*
X32015848Y-50793333D01*
X31987347Y-50837680D01*
X31561847Y-51263181D01*
X31500524Y-51296666D01*
X31474166Y-51299500D01*
X31378036Y-51299500D01*
X31239949Y-51340045D01*
X31118873Y-51417856D01*
X31118872Y-51417856D01*
X31118872Y-51417857D01*
X31106290Y-51432377D01*
X31024623Y-51526626D01*
X31024622Y-51526628D01*
X30964834Y-51657543D01*
X30944353Y-51800000D01*
X20200500Y-51800000D01*
X20200500Y-44700646D01*
X20711041Y-44700646D01*
X26330040Y-44700646D01*
X26330040Y-44600646D01*
X27461041Y-44600646D01*
X31337569Y-44600646D01*
X31337569Y-43436918D01*
X27461041Y-43436918D01*
X27461041Y-44600646D01*
X26330040Y-44600646D01*
X26330040Y-43537415D01*
X20711041Y-43537415D01*
X20711041Y-44700646D01*
X20200500Y-44700646D01*
X20200500Y-43050000D01*
X41023996Y-43050000D01*
X41042784Y-43288723D01*
X41098684Y-43521562D01*
X41098684Y-43521564D01*
X41190317Y-43742787D01*
X41190319Y-43742790D01*
X41315433Y-43946957D01*
X41315434Y-43946960D01*
X41315437Y-43946963D01*
X41470952Y-44129048D01*
X41611903Y-44249431D01*
X41653039Y-44284565D01*
X41653042Y-44284566D01*
X41857209Y-44409680D01*
X41857212Y-44409682D01*
X42078436Y-44501315D01*
X42078437Y-44501315D01*
X42078439Y-44501316D01*
X42311280Y-44557216D01*
X42550000Y-44576004D01*
X42788720Y-44557216D01*
X43021561Y-44501316D01*
X43021563Y-44501315D01*
X43021564Y-44501315D01*
X43242787Y-44409682D01*
X43242788Y-44409681D01*
X43242791Y-44409680D01*
X43446963Y-44284563D01*
X43629048Y-44129048D01*
X43784563Y-43946963D01*
X43909680Y-43742791D01*
X44001316Y-43521561D01*
X44057216Y-43288720D01*
X44076004Y-43050000D01*
X44057216Y-42811280D01*
X44001316Y-42578439D01*
X44001315Y-42578436D01*
X44001315Y-42578435D01*
X43909682Y-42357212D01*
X43909680Y-42357209D01*
X43784566Y-42153042D01*
X43784565Y-42153039D01*
X43749431Y-42111903D01*
X43629048Y-41970952D01*
X43508663Y-41868133D01*
X43446960Y-41815434D01*
X43446957Y-41815433D01*
X43242790Y-41690319D01*
X43242787Y-41690317D01*
X43021563Y-41598684D01*
X42788723Y-41542784D01*
X42550000Y-41523996D01*
X42311276Y-41542784D01*
X42078437Y-41598684D01*
X42078435Y-41598684D01*
X41857212Y-41690317D01*
X41857209Y-41690319D01*
X41653042Y-41815433D01*
X41653039Y-41815434D01*
X41470952Y-41970952D01*
X41315434Y-42153039D01*
X41315433Y-42153042D01*
X41190319Y-42357209D01*
X41190317Y-42357212D01*
X41098684Y-42578435D01*
X41098684Y-42578437D01*
X41042784Y-42811276D01*
X41023996Y-43050000D01*
X20200500Y-43050000D01*
X20200500Y-35177650D01*
X54423996Y-35177650D01*
X54442784Y-35416373D01*
X54498684Y-35649212D01*
X54498684Y-35649214D01*
X54590317Y-35870437D01*
X54590319Y-35870440D01*
X54715433Y-36074607D01*
X54715434Y-36074610D01*
X54755498Y-36121519D01*
X54870952Y-36256698D01*
X55011903Y-36377081D01*
X55053039Y-36412215D01*
X55053042Y-36412216D01*
X55257209Y-36537330D01*
X55257212Y-36537332D01*
X55478436Y-36628965D01*
X55478437Y-36628965D01*
X55478439Y-36628966D01*
X55711280Y-36684866D01*
X55950000Y-36703654D01*
X56188720Y-36684866D01*
X56421561Y-36628966D01*
X56421563Y-36628965D01*
X56421564Y-36628965D01*
X56642787Y-36537332D01*
X56642788Y-36537331D01*
X56642791Y-36537330D01*
X56785300Y-36450000D01*
X60219353Y-36450000D01*
X60239834Y-36592456D01*
X60299622Y-36723371D01*
X60299623Y-36723373D01*
X60393872Y-36832143D01*
X60514947Y-36909953D01*
X60514950Y-36909954D01*
X60514949Y-36909954D01*
X60622107Y-36941417D01*
X60645788Y-36948371D01*
X60653036Y-36950499D01*
X60653038Y-36950500D01*
X60653039Y-36950500D01*
X60796962Y-36950500D01*
X60796962Y-36950499D01*
X60935050Y-36909954D01*
X60935051Y-36909954D01*
X60996936Y-36870184D01*
X61063974Y-36850500D01*
X63100236Y-36850500D01*
X63167275Y-36870185D01*
X63213030Y-36922989D01*
X63224620Y-36948369D01*
X63224623Y-36948373D01*
X63318872Y-37057143D01*
X63439947Y-37134953D01*
X63439950Y-37134954D01*
X63439949Y-37134954D01*
X63578036Y-37175499D01*
X63578038Y-37175500D01*
X63578039Y-37175500D01*
X63721962Y-37175500D01*
X63721962Y-37175499D01*
X63860053Y-37134953D01*
X63981128Y-37057143D01*
X64075377Y-36948373D01*
X64135165Y-36817457D01*
X64155647Y-36675000D01*
X64135165Y-36532543D01*
X64075377Y-36401627D01*
X63981128Y-36292857D01*
X63946581Y-36270655D01*
X63860051Y-36215045D01*
X63743736Y-36180893D01*
X63690990Y-36149597D01*
X63670915Y-36129522D01*
X63670913Y-36129520D01*
X63625250Y-36103156D01*
X63579589Y-36076793D01*
X63528657Y-36063146D01*
X63477727Y-36049500D01*
X63477726Y-36049500D01*
X61063974Y-36049500D01*
X60996936Y-36029816D01*
X60935050Y-35990045D01*
X60796963Y-35949500D01*
X60796961Y-35949500D01*
X60653039Y-35949500D01*
X60653036Y-35949500D01*
X60514949Y-35990045D01*
X60393873Y-36067856D01*
X60299623Y-36176626D01*
X60299622Y-36176628D01*
X60239834Y-36307543D01*
X60219353Y-36450000D01*
X56785300Y-36450000D01*
X56846963Y-36412213D01*
X57029048Y-36256698D01*
X57184563Y-36074613D01*
X57309680Y-35870441D01*
X57357974Y-35753849D01*
X65084898Y-35753849D01*
X65104652Y-35941792D01*
X65104653Y-35941795D01*
X65163049Y-36121520D01*
X65163050Y-36121522D01*
X65257534Y-36285175D01*
X65257535Y-36285177D01*
X65257537Y-36285179D01*
X65383988Y-36425616D01*
X65383991Y-36425618D01*
X65536869Y-36536691D01*
X65536870Y-36536691D01*
X65536874Y-36536694D01*
X65677667Y-36599379D01*
X65709508Y-36613556D01*
X65709513Y-36613558D01*
X65894361Y-36652849D01*
X66083339Y-36652849D01*
X66268187Y-36613558D01*
X66440826Y-36536694D01*
X66593712Y-36425616D01*
X66720163Y-36285179D01*
X66814651Y-36121519D01*
X66873048Y-35941791D01*
X66892802Y-35753849D01*
X69084898Y-35753849D01*
X69104652Y-35941792D01*
X69104653Y-35941795D01*
X69163049Y-36121520D01*
X69163050Y-36121522D01*
X69257534Y-36285175D01*
X69257535Y-36285177D01*
X69257537Y-36285179D01*
X69383988Y-36425616D01*
X69383991Y-36425618D01*
X69536869Y-36536691D01*
X69536870Y-36536691D01*
X69536874Y-36536694D01*
X69677667Y-36599379D01*
X69709508Y-36613556D01*
X69709513Y-36613558D01*
X69894361Y-36652849D01*
X70083339Y-36652849D01*
X70268187Y-36613558D01*
X70440826Y-36536694D01*
X70593712Y-36425616D01*
X70720163Y-36285179D01*
X70814651Y-36121519D01*
X70873048Y-35941791D01*
X70892802Y-35753849D01*
X70873048Y-35565907D01*
X70814651Y-35386179D01*
X70720163Y-35222519D01*
X70593712Y-35082082D01*
X70532119Y-35037332D01*
X70440830Y-34971006D01*
X70440827Y-34971004D01*
X70440826Y-34971004D01*
X70368778Y-34938926D01*
X70268191Y-34894141D01*
X70268186Y-34894139D01*
X70083339Y-34854849D01*
X69894361Y-34854849D01*
X69709513Y-34894139D01*
X69709508Y-34894141D01*
X69536874Y-34971004D01*
X69536869Y-34971006D01*
X69383991Y-35082079D01*
X69257534Y-35222522D01*
X69163050Y-35386175D01*
X69163049Y-35386177D01*
X69104653Y-35565902D01*
X69104652Y-35565905D01*
X69084898Y-35753849D01*
X66892802Y-35753849D01*
X66873048Y-35565907D01*
X66814651Y-35386179D01*
X66720163Y-35222519D01*
X66593712Y-35082082D01*
X66532119Y-35037332D01*
X66440830Y-34971006D01*
X66440827Y-34971004D01*
X66440826Y-34971004D01*
X66368778Y-34938926D01*
X66268191Y-34894141D01*
X66268186Y-34894139D01*
X66083339Y-34854849D01*
X65894361Y-34854849D01*
X65709513Y-34894139D01*
X65709508Y-34894141D01*
X65536874Y-34971004D01*
X65536869Y-34971006D01*
X65383991Y-35082079D01*
X65257534Y-35222522D01*
X65163050Y-35386175D01*
X65163049Y-35386177D01*
X65104653Y-35565902D01*
X65104652Y-35565905D01*
X65084898Y-35753849D01*
X57357974Y-35753849D01*
X57401316Y-35649211D01*
X57457216Y-35416370D01*
X57476004Y-35177650D01*
X57457216Y-34938930D01*
X57401316Y-34706089D01*
X57401315Y-34706086D01*
X57401315Y-34706085D01*
X57309682Y-34484862D01*
X57309680Y-34484859D01*
X57184566Y-34280692D01*
X57184565Y-34280689D01*
X57149431Y-34239553D01*
X57029048Y-34098602D01*
X56908663Y-33995783D01*
X56846960Y-33943084D01*
X56846957Y-33943083D01*
X56642790Y-33817969D01*
X56642787Y-33817967D01*
X56421563Y-33726334D01*
X56218780Y-33677650D01*
X60192846Y-33677650D01*
X60211634Y-33916373D01*
X60267534Y-34149212D01*
X60267534Y-34149214D01*
X60359167Y-34370437D01*
X60359169Y-34370440D01*
X60484283Y-34574607D01*
X60484284Y-34574610D01*
X60484287Y-34574613D01*
X60639802Y-34756698D01*
X60754722Y-34854849D01*
X60821889Y-34912215D01*
X60821892Y-34912216D01*
X61026059Y-35037330D01*
X61026062Y-35037332D01*
X61247286Y-35128965D01*
X61247287Y-35128965D01*
X61247289Y-35128966D01*
X61480130Y-35184866D01*
X61718850Y-35203654D01*
X61957570Y-35184866D01*
X62190411Y-35128966D01*
X62190413Y-35128965D01*
X62190414Y-35128965D01*
X62411637Y-35037332D01*
X62411638Y-35037331D01*
X62411641Y-35037330D01*
X62615813Y-34912213D01*
X62797898Y-34756698D01*
X62953413Y-34574613D01*
X63078530Y-34370441D01*
X63115707Y-34280689D01*
X63170165Y-34149214D01*
X63170165Y-34149213D01*
X63170166Y-34149211D01*
X63226066Y-33916370D01*
X63244854Y-33677650D01*
X63226066Y-33438930D01*
X63172029Y-33213849D01*
X65084898Y-33213849D01*
X65104652Y-33401792D01*
X65104653Y-33401795D01*
X65163049Y-33581520D01*
X65163050Y-33581522D01*
X65257534Y-33745175D01*
X65257535Y-33745177D01*
X65257537Y-33745179D01*
X65383988Y-33885616D01*
X65383991Y-33885618D01*
X65536869Y-33996691D01*
X65536870Y-33996691D01*
X65536874Y-33996694D01*
X65677667Y-34059379D01*
X65709508Y-34073556D01*
X65709513Y-34073558D01*
X65894361Y-34112849D01*
X66083339Y-34112849D01*
X66268187Y-34073558D01*
X66440826Y-33996694D01*
X66593712Y-33885616D01*
X66720163Y-33745179D01*
X66814651Y-33581519D01*
X66873048Y-33401791D01*
X66892802Y-33213849D01*
X69084898Y-33213849D01*
X69104652Y-33401792D01*
X69104653Y-33401795D01*
X69163049Y-33581520D01*
X69163050Y-33581522D01*
X69257534Y-33745175D01*
X69257535Y-33745177D01*
X69257537Y-33745179D01*
X69383988Y-33885616D01*
X69383991Y-33885618D01*
X69536869Y-33996691D01*
X69536870Y-33996691D01*
X69536874Y-33996694D01*
X69677667Y-34059379D01*
X69709508Y-34073556D01*
X69709513Y-34073558D01*
X69894361Y-34112849D01*
X70083339Y-34112849D01*
X70268187Y-34073558D01*
X70440826Y-33996694D01*
X70593712Y-33885616D01*
X70720163Y-33745179D01*
X70814651Y-33581519D01*
X70873048Y-33401791D01*
X70892802Y-33213849D01*
X70873048Y-33025907D01*
X70814651Y-32846179D01*
X70720163Y-32682519D01*
X70593712Y-32542082D01*
X70593708Y-32542079D01*
X70440830Y-32431006D01*
X70440827Y-32431004D01*
X70440826Y-32431004D01*
X70378139Y-32403094D01*
X70268191Y-32354141D01*
X70268186Y-32354139D01*
X70083339Y-32314849D01*
X69894361Y-32314849D01*
X69709513Y-32354139D01*
X69709508Y-32354141D01*
X69536874Y-32431004D01*
X69536869Y-32431006D01*
X69383991Y-32542079D01*
X69257534Y-32682522D01*
X69163050Y-32846175D01*
X69163049Y-32846177D01*
X69104653Y-33025902D01*
X69104652Y-33025905D01*
X69084898Y-33213849D01*
X66892802Y-33213849D01*
X66873048Y-33025907D01*
X66814651Y-32846179D01*
X66720163Y-32682519D01*
X66593712Y-32542082D01*
X66593708Y-32542079D01*
X66440830Y-32431006D01*
X66440827Y-32431004D01*
X66440826Y-32431004D01*
X66378139Y-32403094D01*
X66268191Y-32354141D01*
X66268186Y-32354139D01*
X66083339Y-32314849D01*
X65894361Y-32314849D01*
X65709513Y-32354139D01*
X65709508Y-32354141D01*
X65536874Y-32431004D01*
X65536869Y-32431006D01*
X65383991Y-32542079D01*
X65257534Y-32682522D01*
X65163050Y-32846175D01*
X65163049Y-32846177D01*
X65104653Y-33025902D01*
X65104652Y-33025905D01*
X65084898Y-33213849D01*
X63172029Y-33213849D01*
X63170166Y-33206089D01*
X63170165Y-33206086D01*
X63170165Y-33206085D01*
X63078532Y-32984862D01*
X63078530Y-32984859D01*
X62953416Y-32780692D01*
X62953415Y-32780689D01*
X62869572Y-32682522D01*
X62797898Y-32598602D01*
X62677513Y-32495783D01*
X62615810Y-32443084D01*
X62615807Y-32443083D01*
X62411640Y-32317969D01*
X62411637Y-32317967D01*
X62190413Y-32226334D01*
X61957573Y-32170434D01*
X61718850Y-32151646D01*
X61480126Y-32170434D01*
X61247287Y-32226334D01*
X61247285Y-32226334D01*
X61026062Y-32317967D01*
X61026059Y-32317969D01*
X60821892Y-32443083D01*
X60821889Y-32443084D01*
X60639802Y-32598602D01*
X60484284Y-32780689D01*
X60484283Y-32780692D01*
X60359169Y-32984859D01*
X60359167Y-32984862D01*
X60267534Y-33206085D01*
X60267534Y-33206087D01*
X60211634Y-33438926D01*
X60192846Y-33677650D01*
X56218780Y-33677650D01*
X56188723Y-33670434D01*
X55950000Y-33651646D01*
X55711276Y-33670434D01*
X55478437Y-33726334D01*
X55478435Y-33726334D01*
X55257212Y-33817967D01*
X55257209Y-33817969D01*
X55053042Y-33943083D01*
X55053039Y-33943084D01*
X54870952Y-34098602D01*
X54715434Y-34280689D01*
X54715433Y-34280692D01*
X54590319Y-34484859D01*
X54590317Y-34484862D01*
X54498684Y-34706085D01*
X54498684Y-34706087D01*
X54442784Y-34938926D01*
X54423996Y-35177650D01*
X20200500Y-35177650D01*
X20200500Y-30772844D01*
X74670000Y-30772844D01*
X74676401Y-30832372D01*
X74676403Y-30832379D01*
X74726645Y-30967086D01*
X74726649Y-30967093D01*
X74812809Y-31082187D01*
X74812812Y-31082190D01*
X74927906Y-31168350D01*
X74927913Y-31168354D01*
X75062620Y-31218596D01*
X75062627Y-31218598D01*
X75122155Y-31224999D01*
X75122172Y-31225000D01*
X77200000Y-31225000D01*
X77200000Y-30475000D01*
X74670000Y-30475000D01*
X74670000Y-30772844D01*
X20200500Y-30772844D01*
X20200500Y-29677155D01*
X74670000Y-29677155D01*
X74670000Y-29975000D01*
X77200000Y-29975000D01*
X77200000Y-29225000D01*
X75122155Y-29225000D01*
X75062627Y-29231401D01*
X75062620Y-29231403D01*
X74927913Y-29281645D01*
X74927906Y-29281649D01*
X74812812Y-29367809D01*
X74812809Y-29367812D01*
X74726649Y-29482906D01*
X74726645Y-29482913D01*
X74676403Y-29617620D01*
X74676401Y-29617627D01*
X74670000Y-29677155D01*
X20200500Y-29677155D01*
X20200500Y-25232844D01*
X74670000Y-25232844D01*
X74676401Y-25292372D01*
X74676403Y-25292379D01*
X74726645Y-25427086D01*
X74726649Y-25427093D01*
X74812809Y-25542187D01*
X74812812Y-25542190D01*
X74927906Y-25628350D01*
X74927913Y-25628354D01*
X75062620Y-25678596D01*
X75062627Y-25678598D01*
X75122155Y-25684999D01*
X75122172Y-25685000D01*
X77200000Y-25685000D01*
X77200000Y-24935000D01*
X74670000Y-24935000D01*
X74670000Y-25232844D01*
X20200500Y-25232844D01*
X20200500Y-24137155D01*
X74670000Y-24137155D01*
X74670000Y-24435000D01*
X77200000Y-24435000D01*
X77200000Y-23685000D01*
X75122155Y-23685000D01*
X75062627Y-23691401D01*
X75062620Y-23691403D01*
X74927913Y-23741645D01*
X74927906Y-23741649D01*
X74812812Y-23827809D01*
X74812809Y-23827812D01*
X74726649Y-23942906D01*
X74726645Y-23942913D01*
X74676403Y-24077620D01*
X74676401Y-24077627D01*
X74670000Y-24137155D01*
X20200500Y-24137155D01*
X20200500Y-21730970D01*
X20220185Y-21663931D01*
X20272989Y-21618176D01*
X20342147Y-21608232D01*
X20405703Y-21637257D01*
X20441919Y-21691112D01*
X20466348Y-21763078D01*
X20596825Y-22027660D01*
X20596829Y-22027667D01*
X20760725Y-22272955D01*
X20955241Y-22494758D01*
X21177043Y-22689273D01*
X21422335Y-22853172D01*
X21686923Y-22983652D01*
X21966278Y-23078481D01*
X22255620Y-23136034D01*
X22283888Y-23137886D01*
X22549993Y-23155329D01*
X22550000Y-23155329D01*
X22550007Y-23155329D01*
X22785675Y-23139881D01*
X22844380Y-23136034D01*
X23133722Y-23078481D01*
X23413077Y-22983652D01*
X23677665Y-22853172D01*
X23922957Y-22689273D01*
X24144758Y-22494758D01*
X24339273Y-22272957D01*
X24503172Y-22027665D01*
X24633652Y-21763077D01*
X24728481Y-21483722D01*
X24786034Y-21194380D01*
X24805329Y-20900000D01*
X24805329Y-20899992D01*
X24786035Y-20605636D01*
X24786034Y-20605620D01*
X24728481Y-20316278D01*
X24633652Y-20036923D01*
X24503172Y-19772336D01*
X24339273Y-19527043D01*
X24232455Y-19405241D01*
X24144758Y-19305241D01*
X23922955Y-19110725D01*
X23677667Y-18946829D01*
X23677660Y-18946825D01*
X23553734Y-18885712D01*
X23502315Y-18838407D01*
X23484633Y-18770812D01*
X23506303Y-18704387D01*
X23560444Y-18660223D01*
X23608578Y-18650500D01*
X69369029Y-18650500D01*
X69436068Y-18670185D01*
G37*
%TD.AperFunction*%
%TD*%
M02*
